<svg id="svg" version="1.1" xmlns="http://www.w3.org/2000/svg" xmlns:xlink="http://www.w3.org/1999/xlink" width="400" height="400" viewBox="0, 0, 400,400"><g id="svgg"><path id="path0" d="M241.921 67.093 L 232.676 77.500 232.598 94.667 C 232.554 104.108,232.504 114.458,232.485 117.667 C 232.327 144.569,214.154 167.693,189.000 172.999 C 187.992 173.211,186.942 173.467,186.667 173.566 C 185.453 174.004,182.070 174.064,144.667 174.299 C 122.942 174.436,104.792 174.663,104.333 174.804 C 103.875 174.944,103.275 175.141,103.000 175.240 C 102.725 175.340,102.097 175.474,101.605 175.539 C 96.974 176.147,89.274 181.159,85.720 185.879 C 77.036 197.409,77.016 210.915,85.667 222.528 L 88.500 226.331 135.900 226.332 C 190.249 226.333,189.072 226.276,198.795 229.384 C 206.908 231.977,218.778 240.335,222.333 245.958 C 222.608 246.392,222.990 246.917,223.181 247.124 C 223.740 247.727,225.855 251.335,226.871 253.417 C 228.008 255.748,227.774 255.745,231.780 253.488 C 262.957 235.924,284.375 203.706,288.493 168.177 C 288.782 165.680,289.012 163.157,289.004 162.569 C 288.995 161.981,289.083 159.925,289.199 158.000 C 289.965 145.260,286.743 127.060,281.310 113.442 C 278.406 106.162,271.699 93.528,270.251 92.609 C 270.021 92.463,269.945 92.341,270.082 92.338 C 270.284 92.334,267.810 88.649,266.629 87.194 C 265.297 85.553,261.724 81.105,261.283 80.540 L 260.733 79.833 284.450 79.833 C 311.160 79.833,310.648 79.875,315.685 77.287 C 322.369 73.853,327.645 66.606,328.173 60.135 C 328.242 59.280,328.394 58.150,328.510 57.623 L 328.720 56.667 289.943 56.676 L 251.167 56.685 241.921 67.093 M133.913 196.880 C 139.866 201.290,135.079 210.158,128.170 207.519 C 123.511 205.740,123.116 199.293,127.510 196.742 C 129.218 195.750,132.483 195.820,133.913 196.880 M89.733 315.067 C 89.000 315.800,89.176 341.896,89.917 342.277 C 90.564 342.609,91.370 342.429,91.745 341.867 C 91.880 341.665,91.992 335.642,91.995 328.483 C 92.000 315.052,91.963 314.667,90.667 314.667 C 90.373 314.667,89.953 314.847,89.733 315.067 M103.037 315.122 C 102.331 315.973,102.692 342.005,103.417 342.462 C 104.314 343.028,105.148 342.318,105.270 340.883 C 105.393 339.438,105.618 339.382,106.692 340.532 C 112.202 346.436,121.350 341.096,120.933 332.219 C 120.543 323.911,112.154 319.488,106.948 324.845 C 105.336 326.504,105.333 326.497,105.333 320.733 C 105.333 315.329,105.185 314.667,103.974 314.667 C 103.667 314.667,103.245 314.872,103.037 315.122 M350.638 314.985 C 348.029 315.776,347.000 317.463,347.000 320.950 L 347.000 323.298 345.284 323.399 C 342.169 323.582,342.101 325.684,345.201 326.000 L 346.833 326.167 346.920 334.000 C 347.011 342.285,347.147 342.959,348.616 342.418 C 349.601 342.055,349.656 341.598,349.662 333.765 L 349.667 326.029 352.048 325.931 C 353.883 325.856,354.514 325.699,354.797 325.250 C 355.528 324.086,354.672 323.510,352.048 323.402 L 349.667 323.304 349.667 321.340 C 349.667 317.832,350.778 316.609,353.368 317.266 C 354.783 317.625,355.667 317.263,355.667 316.325 C 355.667 315.043,352.889 314.303,350.638 314.985 M27.716 316.007 C 18.427 317.948,19.454 327.713,29.226 330.362 C 34.136 331.694,36.067 333.263,36.067 335.924 C 36.067 340.401,28.975 341.664,23.889 338.092 C 20.875 335.976,19.262 337.746,22.039 340.123 C 27.149 344.497,35.924 343.446,38.368 338.167 C 40.345 333.896,37.110 329.154,31.569 328.201 C 25.991 327.242,22.999 323.862,24.891 320.660 C 26.588 317.786,33.883 317.880,36.312 320.807 C 36.891 321.505,37.439 321.471,38.142 320.694 C 38.816 319.949,38.576 319.301,37.144 318.000 C 36.639 317.542,36.347 317.392,36.495 317.667 C 36.643 317.942,36.442 317.835,36.048 317.429 C 34.819 316.165,30.493 315.427,27.716 316.007 M220.250 316.360 C 219.324 316.900,219.354 341.809,220.282 342.306 C 221.915 343.180,222.257 342.149,222.235 336.406 C 222.210 329.754,221.664 330.333,227.953 330.333 C 233.109 330.333,234.009 330.162,233.995 329.183 C 233.977 327.970,233.424 327.835,227.781 327.667 L 222.203 327.500 222.222 323.612 C 222.248 318.166,221.584 318.667,228.782 318.667 C 233.740 318.667,234.996 318.574,235.320 318.183 C 235.872 317.518,235.467 316.447,234.572 316.207 C 233.294 315.865,220.873 315.997,220.250 316.360 M307.571 316.540 C 306.923 317.188,307.314 341.966,307.978 342.322 C 308.360 342.526,311.293 342.667,315.167 342.667 C 322.133 342.667,323.000 342.501,323.000 341.167 C 323.000 339.854,322.108 339.667,315.860 339.667 L 310.009 339.667 309.921 328.083 L 309.833 316.500 308.821 316.401 C 308.265 316.346,307.702 316.409,307.571 316.540 M76.083 316.880 C 75.255 317.229,75.572 319.630,76.476 319.857 C 78.222 320.295,79.636 318.756,78.765 317.365 C 78.432 316.833,76.866 316.549,76.083 316.880 M332.083 316.880 C 331.255 317.229,331.572 319.630,332.476 319.857 C 334.222 320.295,335.636 318.756,334.765 317.365 C 334.432 316.833,332.866 316.549,332.083 316.880 M188.250 318.360 C 187.793 318.626,187.667 319.151,187.667 320.783 C 187.667 323.248,187.397 323.606,185.671 323.434 C 184.652 323.332,184.299 323.440,184.033 323.939 C 183.504 324.928,184.262 325.620,186.000 325.734 L 187.500 325.833 187.674 333.000 C 187.770 336.942,187.970 340.420,188.119 340.730 C 188.911 342.380,192.749 343.066,194.030 341.785 C 195.062 340.752,194.553 340.000,192.821 340.000 C 190.346 340.000,190.307 339.875,190.410 332.386 L 190.500 325.833 192.555 325.735 C 196.139 325.563,196.484 323.539,192.940 323.476 C 190.466 323.432,190.333 323.300,190.333 320.880 C 190.333 318.251,189.717 317.506,188.250 318.360 M53.081 323.221 C 45.696 325.835,45.359 338.543,52.582 342.040 C 55.698 343.548,59.096 342.939,61.750 340.396 L 63.000 339.198 63.005 340.349 C 63.013 342.065,63.863 342.902,65.005 342.319 C 65.829 341.897,65.745 323.727,64.917 323.205 C 64.068 322.669,63.189 323.338,63.062 324.617 C 62.933 325.917,62.707 325.926,61.514 324.682 C 59.723 322.812,56.040 322.174,53.081 323.221 M76.583 323.036 C 75.644 323.568,75.693 341.812,76.636 342.317 C 78.502 343.315,78.693 342.358,78.592 332.540 C 78.492 322.828,78.327 322.047,76.583 323.036 M135.901 323.147 C 125.497 326.859,128.008 342.769,139.000 342.786 C 149.658 342.803,152.423 327.075,142.421 323.332 C 140.379 322.568,137.735 322.493,135.901 323.147 M163.081 323.221 C 155.696 325.835,155.359 338.543,162.582 342.040 C 165.698 343.548,169.096 342.939,171.750 340.396 L 173.000 339.198 173.005 340.349 C 173.013 342.065,173.863 342.902,175.005 342.319 C 175.829 341.897,175.745 323.727,174.917 323.205 C 174.068 322.669,173.189 323.338,173.062 324.617 C 172.933 325.917,172.707 325.926,171.514 324.682 C 169.723 322.812,166.040 322.174,163.081 323.221 M249.901 323.147 C 239.497 326.859,242.008 342.769,253.000 342.786 C 263.658 342.803,266.423 327.075,256.421 323.332 C 254.379 322.568,251.735 322.493,249.901 323.147 M278.633 323.330 C 277.418 323.973,275.333 326.088,275.333 326.678 C 275.333 326.855,275.183 327.000,275.000 327.000 C 274.817 327.000,274.667 326.255,274.667 325.345 C 274.667 323.444,273.900 322.673,272.667 323.333 C 272.025 323.677,272.000 324.029,272.005 332.595 C 272.010 341.510,272.069 342.085,273.000 342.405 C 274.483 342.914,274.667 342.273,274.669 336.572 C 274.672 327.791,276.437 324.639,281.064 325.152 C 282.746 325.338,283.002 325.286,283.322 324.689 C 284.244 322.965,281.067 322.044,278.633 323.330 M332.583 323.036 C 331.644 323.568,331.693 341.812,332.636 342.317 C 334.502 343.315,334.693 342.358,334.592 332.540 C 334.492 322.828,334.327 322.047,332.583 323.036 M367.998 322.978 C 358.329 325.919,359.308 340.898,369.286 342.681 C 373.055 343.355,378.113 341.219,378.200 338.917 C 378.245 337.734,377.407 337.468,376.350 338.328 C 371.630 342.168,364.360 339.811,364.202 334.389 L 364.167 333.167 371.464 333.000 C 379.898 332.807,379.640 332.914,379.010 329.880 C 377.996 324.996,372.561 321.590,367.998 322.978 M59.884 326.202 C 65.904 329.629,62.947 340.876,56.192 340.249 C 53.423 339.992,51.822 338.984,50.989 336.973 C 50.767 336.438,50.485 336.000,50.361 336.000 C 49.786 336.000,49.966 330.674,50.589 329.265 C 51.284 327.693,53.256 325.767,54.423 325.518 C 56.181 325.143,56.552 325.112,57.500 325.259 C 58.050 325.344,59.123 325.769,59.884 326.202 M115.436 326.294 C 118.092 327.935,119.187 332.919,117.641 336.327 C 114.417 343.436,105.349 340.725,105.337 332.649 C 105.328 326.653,110.624 323.320,115.436 326.294 M142.412 326.102 C 148.988 329.704,145.759 341.024,138.378 340.248 C 136.061 340.005,135.953 339.954,134.308 338.303 C 128.241 332.215,134.998 322.041,142.412 326.102 M169.884 326.202 C 175.904 329.629,172.947 340.876,166.192 340.249 C 163.423 339.992,161.822 338.984,160.989 336.973 C 160.767 336.438,160.485 336.000,160.361 336.000 C 159.786 336.000,159.966 330.674,160.589 329.265 C 161.284 327.693,163.256 325.767,164.423 325.518 C 166.181 325.143,166.552 325.112,167.500 325.259 C 168.050 325.344,169.123 325.769,169.884 326.202 M256.412 326.102 C 262.988 329.704,259.759 341.024,252.378 340.248 C 250.061 340.005,249.953 339.954,248.308 338.303 C 242.241 332.215,248.998 322.041,256.412 326.102 M373.319 325.992 C 374.801 326.748,375.914 328.152,376.211 329.639 L 376.417 330.667 370.186 330.667 L 363.955 330.667 364.186 329.917 C 365.428 325.893,369.605 324.098,373.319 325.992 " stroke="none" fill="#0c4c84" fill-rule="evenodd"></path><path id="path1" d="M140.006 57.917 C 140.041 67.635,148.102 77.177,158.299 79.572 C 162.213 80.491,206.174 80.478,210.104 79.556 C 217.956 77.715,224.839 71.526,227.314 64.084 C 228.083 61.772,228.816 57.178,228.498 56.664 C 228.365 56.448,212.992 56.333,184.147 56.333 L 140.000 56.333 140.006 57.917 M241.748 66.907 L 232.333 77.481 232.414 94.657 L 232.494 111.833 232.586 94.667 L 232.678 77.500 241.879 67.167 L 251.080 56.833 289.957 56.665 L 328.833 56.496 289.998 56.415 L 251.163 56.333 241.748 66.907 M328.263 58.440 C 328.182 58.865,328.229 59.502,328.368 59.856 C 328.546 60.312,328.627 60.086,328.643 59.083 C 328.669 57.529,328.494 57.232,328.263 58.440 M327.368 63.702 C 325.773 69.096,321.174 74.472,315.777 77.250 C 314.456 77.930,313.426 78.537,313.487 78.599 C 314.090 79.201,320.954 74.444,322.987 72.015 C 325.408 69.124,328.269 63.640,327.913 62.572 C 327.851 62.388,327.606 62.896,327.368 63.702 M310.667 79.167 C 309.842 79.406,309.467 79.604,309.833 79.608 C 310.200 79.612,311.100 79.418,311.833 79.176 C 313.560 78.607,312.624 78.600,310.667 79.167 M261.222 80.456 C 261.706 81.082,265.065 85.268,266.629 87.194 C 267.625 88.421,270.299 92.333,270.142 92.333 C 270.038 92.333,270.180 92.561,270.459 92.840 C 271.030 93.411,274.877 99.750,275.967 101.917 C 276.359 102.696,276.755 103.333,276.846 103.333 C 277.815 103.333,269.656 90.519,265.079 84.855 C 263.477 82.872,261.942 80.894,261.667 80.459 C 261.392 80.024,261.042 79.668,260.889 79.667 C 260.736 79.667,260.886 80.022,261.222 80.456 M284.333 80.000 L 261.833 80.174 284.000 80.229 C 296.192 80.259,306.842 80.164,307.667 80.017 C 308.930 79.792,308.982 79.756,308.000 79.788 C 307.358 79.809,296.708 79.904,284.333 80.000 M278.031 105.833 C 278.031 106.017,278.467 106.992,279.000 108.000 C 279.533 109.008,279.969 109.683,279.969 109.500 C 279.969 109.317,279.533 108.342,279.000 107.333 C 278.467 106.325,278.031 105.650,278.031 105.833 M280.830 112.250 C 280.959 112.571,281.372 113.624,281.748 114.590 C 282.124 115.556,282.491 116.287,282.564 116.214 C 282.728 116.049,280.992 111.667,280.762 111.667 C 280.670 111.667,280.701 111.929,280.830 112.250 M282.884 117.333 C 283.264 118.835,284.043 120.669,283.820 119.537 C 283.716 119.007,283.415 118.107,283.152 117.537 C 282.792 116.757,282.726 116.707,282.884 117.333 M232.433 119.667 C 232.433 120.675,232.496 121.087,232.572 120.583 C 232.648 120.079,232.648 119.254,232.572 118.750 C 232.496 118.246,232.433 118.658,232.433 119.667 M127.493 121.810 C 125.012 123.297,123.801 127.062,125.045 129.425 C 125.551 130.387,130.261 135.333,130.671 135.333 C 131.265 135.333,135.978 129.911,136.342 128.808 C 138.024 123.711,132.116 119.038,127.493 121.810 M284.380 122.000 C 284.380 122.275,284.509 122.800,284.667 123.167 C 284.847 123.587,284.953 123.648,284.953 123.333 C 284.953 123.058,284.824 122.533,284.667 122.167 C 284.486 121.746,284.380 121.685,284.380 122.000 M232.095 123.500 C 232.098 124.417,232.163 124.752,232.239 124.245 C 232.316 123.739,232.314 122.989,232.235 122.579 C 232.156 122.169,232.093 122.583,232.095 123.500 M231.744 126.333 C 231.744 126.975,231.813 127.237,231.896 126.917 C 231.980 126.596,231.980 126.071,231.896 125.750 C 231.813 125.429,231.744 125.692,231.744 126.333 M231.200 129.033 C 231.078 129.797,231.043 130.487,231.123 130.567 C 231.202 130.647,231.372 130.091,231.500 129.333 C 231.628 128.575,231.663 127.885,231.577 127.800 C 231.492 127.714,231.322 128.269,231.200 129.033 M286.400 129.500 C 286.400 129.867,286.520 130.542,286.667 131.000 C 286.878 131.660,286.934 131.695,286.934 131.167 C 286.934 130.800,286.813 130.125,286.667 129.667 C 286.455 129.007,286.400 128.972,286.400 129.500 M230.542 132.042 C 230.264 133.431,230.533 133.700,230.833 132.333 C 230.960 131.757,230.994 131.216,230.909 131.131 C 230.824 131.046,230.659 131.456,230.542 132.042 M229.400 135.900 C 228.907 137.507,229.145 137.746,229.667 136.167 C 229.887 135.500,230.002 134.891,229.922 134.811 C 229.843 134.732,229.608 135.222,229.400 135.900 M228.054 139.514 C 227.496 140.740,227.602 141.002,228.206 139.887 C 228.488 139.367,228.656 138.879,228.580 138.802 C 228.504 138.726,228.267 139.047,228.054 139.514 M288.417 140.833 C 288.421 141.567,288.489 141.827,288.569 141.413 C 288.649 140.998,288.646 140.398,288.562 140.079 C 288.479 139.761,288.414 140.100,288.417 140.833 M226.237 143.512 C 225.560 144.880,225.077 146.000,225.165 146.000 C 225.388 146.000,227.737 141.293,227.589 141.144 C 227.522 141.078,226.914 142.143,226.237 143.512 M288.757 144.000 C 288.757 144.825,288.822 145.162,288.902 144.750 C 288.981 144.337,288.981 143.662,288.902 143.250 C 288.822 142.837,288.757 143.175,288.757 144.000 M289.114 148.500 C 289.115 149.967,289.174 150.525,289.244 149.741 C 289.315 148.957,289.314 147.757,289.242 147.075 C 289.171 146.392,289.113 147.033,289.114 148.500 M223.662 148.083 C 223.078 149.046,222.817 149.608,223.082 149.333 C 223.681 148.711,225.114 146.333,224.889 146.333 C 224.798 146.333,224.246 147.121,223.662 148.083 M220.432 152.583 C 215.759 158.590,209.430 163.967,203.077 167.327 C 201.928 167.935,201.042 168.487,201.108 168.553 C 201.270 168.715,205.458 166.400,207.516 165.011 C 212.678 161.528,218.780 155.689,221.723 151.417 C 223.256 149.191,222.632 149.755,220.432 152.583 M289.453 155.667 C 289.453 157.408,289.510 158.121,289.578 157.250 C 289.647 156.379,289.647 154.954,289.578 154.083 C 289.510 153.212,289.453 153.925,289.453 155.667 M288.954 160.917 C 288.887 161.421,288.923 162.433,289.035 163.167 C 289.205 164.280,289.247 164.129,289.286 162.250 C 289.335 159.943,289.171 159.285,288.954 160.917 M288.757 166.333 C 288.757 167.158,288.822 167.496,288.902 167.083 C 288.981 166.671,288.981 165.996,288.902 165.583 C 288.822 165.171,288.757 165.508,288.757 166.333 M288.411 169.333 C 288.411 169.975,288.479 170.237,288.563 169.917 C 288.647 169.596,288.647 169.071,288.563 168.750 C 288.479 168.429,288.411 168.692,288.411 169.333 M198.500 169.571 C 197.950 169.871,195.775 170.686,193.667 171.382 C 191.558 172.078,190.066 172.651,190.351 172.657 C 191.119 172.671,197.302 170.539,198.837 169.730 C 199.568 169.345,200.017 169.029,199.833 169.028 C 199.650 169.027,199.050 169.272,198.500 169.571 M185.000 173.461 C 185.000 173.757,186.349 173.912,186.519 173.635 C 186.622 173.469,186.322 173.333,185.853 173.333 C 185.384 173.333,185.000 173.391,185.000 173.461 M287.353 175.686 C 287.121 176.982,286.998 178.109,287.079 178.190 C 287.160 178.271,287.415 177.277,287.647 175.980 C 287.879 174.684,288.002 173.558,287.921 173.477 C 287.840 173.396,287.585 174.390,287.353 175.686 M183.083 173.896 C 183.404 173.980,183.929 173.980,184.250 173.896 C 184.571 173.813,184.308 173.744,183.667 173.744 C 183.025 173.744,182.762 173.813,183.083 173.896 M178.750 174.243 C 179.438 174.315,180.563 174.315,181.250 174.243 C 181.938 174.171,181.375 174.112,180.000 174.112 C 178.625 174.112,178.063 174.171,178.750 174.243 M105.917 174.574 C 106.513 174.648,107.487 174.648,108.083 174.574 C 108.679 174.501,108.192 174.440,107.000 174.440 C 105.808 174.440,105.321 174.501,105.917 174.574 M101.833 175.160 C 100.687 175.541,100.640 175.590,101.500 175.512 C 102.050 175.462,102.725 175.335,103.000 175.230 C 103.275 175.125,103.800 174.973,104.167 174.892 C 104.687 174.776,104.651 174.741,104.000 174.731 C 103.542 174.724,102.567 174.917,101.833 175.160 M92.288 179.402 C 88.214 182.095,84.482 186.409,82.046 191.240 C 80.495 194.317,80.797 194.255,82.426 191.163 C 85.429 185.466,88.819 181.800,94.198 178.436 C 94.548 178.218,94.738 178.030,94.621 178.020 C 94.505 178.009,93.455 178.631,92.288 179.402 M285.718 183.051 C 285.500 183.995,285.383 184.827,285.457 184.901 C 285.531 184.975,285.775 184.270,286.000 183.333 C 286.225 182.397,286.342 181.564,286.261 181.483 C 286.180 181.402,285.936 182.108,285.718 183.051 M284.857 186.190 C 284.735 186.679,284.699 187.143,284.777 187.222 C 284.856 187.300,285.020 186.965,285.143 186.476 C 285.265 185.988,285.301 185.524,285.223 185.445 C 285.144 185.367,284.980 185.702,284.857 186.190 M283.741 189.907 C 283.343 191.130,283.074 192.185,283.142 192.253 C 283.209 192.320,283.596 191.382,284.000 190.167 C 284.404 188.952,284.674 187.896,284.599 187.821 C 284.524 187.747,284.138 188.685,283.741 189.907 M282.037 194.704 C 281.832 195.293,281.722 195.833,281.793 195.904 C 281.865 195.976,282.091 195.552,282.296 194.963 C 282.502 194.374,282.611 193.834,282.540 193.762 C 282.469 193.691,282.242 194.115,282.037 194.704 M79.833 197.000 C 79.707 197.576,79.673 198.117,79.758 198.202 C 79.843 198.287,80.008 197.877,80.125 197.292 C 80.403 195.902,80.134 195.633,79.833 197.000 M128.333 196.349 C 127.968 196.596,128.103 196.627,128.833 196.463 C 130.059 196.189,130.325 195.998,129.472 196.005 C 129.121 196.008,128.608 196.162,128.333 196.349 M133.527 196.962 C 134.092 197.307,134.888 198.018,135.295 198.544 C 135.759 199.141,135.908 199.232,135.693 198.786 C 135.285 197.940,133.448 196.333,132.891 196.335 C 132.676 196.335,132.962 196.618,133.527 196.962 M280.733 198.067 C 280.334 199.012,280.060 199.838,280.125 199.903 C 280.190 199.967,280.573 199.251,280.978 198.311 C 281.382 197.371,281.656 196.545,281.586 196.475 C 281.516 196.405,281.133 197.122,280.733 198.067 M126.538 197.363 C 125.615 198.089,124.657 199.655,124.680 200.400 C 124.687 200.638,124.910 200.333,125.176 199.721 C 125.442 199.108,126.127 198.171,126.698 197.637 C 127.907 196.508,127.818 196.356,126.538 197.363 M279.063 201.850 C 278.059 203.916,278.171 204.206,279.205 202.217 C 279.668 201.329,279.989 200.544,279.919 200.475 C 279.849 200.405,279.464 201.024,279.063 201.850 M79.127 204.500 C 79.128 206.700,79.182 207.557,79.247 206.404 C 79.312 205.251,79.312 203.451,79.246 202.404 C 79.180 201.357,79.127 202.300,79.127 204.500 M136.424 202.000 C 136.424 202.825,136.489 203.162,136.569 202.750 C 136.648 202.338,136.648 201.662,136.569 201.250 C 136.489 200.838,136.424 201.175,136.424 202.000 M124.411 202.000 C 124.411 202.642,124.479 202.904,124.563 202.583 C 124.647 202.262,124.647 201.737,124.563 201.417 C 124.479 201.096,124.411 201.358,124.411 202.000 M124.680 203.701 C 124.661 204.447,126.002 206.328,127.000 206.956 C 127.634 207.355,127.573 207.231,126.746 206.437 C 126.148 205.862,125.442 204.892,125.176 204.279 C 124.910 203.667,124.687 203.407,124.680 203.701 M134.833 205.873 C 134.120 206.724,133.356 207.193,132.167 207.510 C 131.250 207.755,130.828 207.965,131.228 207.978 C 132.781 208.025,134.912 206.728,135.709 205.250 C 136.177 204.382,135.946 204.546,134.833 205.873 M276.898 206.504 C 276.594 207.144,276.413 207.667,276.497 207.667 C 276.725 207.667,277.737 205.626,277.584 205.473 C 277.512 205.401,277.203 205.865,276.898 206.504 M275.291 209.417 C 274.632 210.711,272.347 214.492,270.860 216.750 C 270.528 217.254,270.334 217.667,270.430 217.667 C 270.667 217.667,273.679 212.941,275.170 210.227 C 275.844 209.002,276.309 208.000,276.204 208.000 C 276.099 208.000,275.689 208.637,275.291 209.417 M79.723 211.167 C 79.718 211.533,79.842 212.133,80.000 212.500 C 80.365 213.349,80.365 212.473,80.000 211.333 C 79.785 210.663,79.731 210.631,79.723 211.167 M80.341 213.605 C 80.332 214.125,81.708 217.403,81.868 217.243 C 81.929 217.182,81.612 216.240,81.164 215.149 C 80.716 214.059,80.346 213.364,80.341 213.605 M82.311 218.221 C 83.425 220.529,91.019 229.882,95.393 234.333 C 129.957 269.508,183.149 278.326,227.273 256.197 C 229.323 255.169,231.000 254.251,231.000 254.157 C 231.000 254.063,230.406 254.289,229.680 254.660 C 227.893 255.572,227.930 255.588,226.871 253.417 C 225.855 251.335,223.740 247.727,223.181 247.124 C 222.990 246.917,222.608 246.392,222.333 245.958 C 218.778 240.335,206.908 231.977,198.795 229.384 C 189.072 226.276,190.249 226.333,135.900 226.332 L 88.500 226.331 85.738 222.582 C 81.746 217.164,81.888 217.345,82.311 218.221 M269.000 219.500 C 268.432 220.325,268.043 221.000,268.135 221.000 C 268.226 221.000,268.766 220.325,269.333 219.500 C 269.901 218.675,270.290 218.000,270.199 218.000 C 270.107 218.000,269.568 218.675,269.000 219.500 M265.104 224.750 C 256.314 235.920,244.391 246.363,233.250 252.649 C 232.196 253.244,231.333 253.805,231.333 253.897 C 231.333 254.425,240.167 248.742,244.667 245.319 C 252.787 239.141,262.066 229.731,267.337 222.328 C 268.835 220.224,267.676 221.481,265.104 224.750 M252.333 255.872 C 246.742 262.022,241.953 267.353,241.692 267.719 C 241.018 268.665,267.805 268.495,271.167 267.533 C 280.909 264.742,287.665 256.790,288.825 246.750 L 289.065 244.667 275.783 244.679 L 262.500 244.691 252.333 255.872 M89.524 314.857 C 89.065 315.316,89.000 317.029,89.000 328.624 C 89.000 341.869,89.064 342.667,90.130 342.667 C 90.312 342.667,90.205 342.479,89.893 342.250 C 89.011 341.604,89.194 315.432,90.083 314.871 C 91.771 313.807,91.826 314.195,91.926 328.036 C 92.025 341.605,91.982 342.318,91.077 342.360 C 90.649 342.379,90.621 342.434,90.971 342.572 C 92.230 343.070,92.333 342.002,92.333 328.488 C 92.333 316.267,92.295 315.402,91.724 314.885 C 90.958 314.192,90.198 314.183,89.524 314.857 M102.885 314.943 C 102.068 315.846,102.042 341.661,102.857 342.476 C 103.989 343.608,105.667 342.722,105.667 340.992 L 105.667 340.032 106.583 340.883 C 107.592 341.819,109.312 342.800,109.542 342.569 C 109.622 342.489,109.251 342.242,108.717 342.021 C 108.182 341.799,107.324 341.179,106.810 340.642 C 105.601 339.380,105.395 339.412,105.270 340.883 C 105.148 342.318,104.314 343.028,103.417 342.462 C 102.877 342.121,102.833 341.092,102.833 328.667 C 102.833 316.241,102.877 315.212,103.417 314.871 C 104.879 313.949,105.160 314.823,105.258 320.619 C 105.348 325.904,105.522 326.628,106.398 325.379 C 106.637 325.038,107.417 324.363,108.130 323.879 C 108.843 323.396,109.285 323.000,109.111 323.000 C 108.689 323.000,106.605 324.540,106.083 325.237 C 105.744 325.691,105.667 324.828,105.667 320.588 C 105.667 314.495,104.829 312.795,102.885 314.943 M352.083 314.563 C 352.404 314.647,352.929 314.647,353.250 314.563 C 353.571 314.479,353.308 314.411,352.667 314.411 C 352.025 314.411,351.762 314.479,352.083 314.563 M348.958 315.480 C 347.332 316.585,346.667 318.123,346.667 320.780 L 346.667 322.960 345.417 323.091 L 344.167 323.221 345.583 323.277 L 347.000 323.333 347.000 320.967 C 347.000 317.462,348.025 315.777,350.638 314.985 C 351.329 314.776,351.367 314.718,350.827 314.695 C 350.457 314.680,349.616 315.033,348.958 315.480 M354.650 315.142 C 355.099 315.391,355.576 315.873,355.710 316.214 C 355.920 316.748,355.956 316.756,355.977 316.269 C 356.000 315.702,354.816 314.656,354.176 314.678 C 353.987 314.685,354.201 314.894,354.650 315.142 M219.733 316.400 C 219.436 316.697,219.333 320.030,219.333 329.333 C 219.333 341.900,219.401 342.688,220.483 342.657 C 220.676 342.651,220.571 342.494,220.250 342.307 C 219.711 341.993,219.667 341.014,219.667 329.333 C 219.667 317.653,219.711 316.674,220.250 316.360 C 220.571 316.173,220.676 316.016,220.483 316.010 C 220.291 316.005,219.953 316.180,219.733 316.400 M234.734 316.227 C 235.483 316.424,235.827 317.572,235.320 318.183 C 234.996 318.574,233.740 318.667,228.782 318.667 C 221.584 318.667,222.248 318.166,222.222 323.612 L 222.203 327.500 227.741 327.667 C 230.788 327.758,233.345 327.908,233.424 328.000 C 233.503 328.092,233.736 328.467,233.941 328.833 C 234.146 329.200,234.318 329.313,234.323 329.083 C 234.358 327.645,233.202 327.333,227.833 327.333 L 222.667 327.333 222.667 323.167 L 222.667 319.000 228.810 319.000 C 235.044 319.000,236.000 318.817,236.000 317.621 C 236.000 316.905,235.280 316.002,234.738 316.039 C 234.203 316.075,234.203 316.087,234.734 316.227 M307.400 316.400 C 307.103 316.697,307.000 320.030,307.000 329.333 C 307.000 341.857,307.069 342.667,308.130 342.667 C 308.312 342.667,308.205 342.479,307.892 342.250 C 307.371 341.868,307.331 340.779,307.412 329.167 L 307.500 316.500 308.719 316.500 C 309.389 316.500,309.867 316.387,309.782 316.250 C 309.536 315.853,307.840 315.960,307.400 316.400 M24.067 317.323 C 23.316 317.867,22.539 318.655,22.341 319.073 C 22.001 319.790,22.014 319.788,22.569 319.026 C 22.893 318.582,23.826 317.795,24.644 317.276 C 25.462 316.758,25.974 316.333,25.782 316.333 C 25.590 316.333,24.819 316.779,24.067 317.323 M35.167 316.731 C 35.533 316.938,35.955 317.312,36.104 317.561 C 36.253 317.810,36.503 317.934,36.660 317.837 C 36.818 317.740,37.424 318.224,38.008 318.914 C 38.591 319.603,38.916 319.867,38.730 319.500 C 38.112 318.286,35.636 316.311,34.772 316.343 C 34.622 316.349,34.800 316.523,35.167 316.731 M75.917 316.693 C 75.069 317.187,75.113 319.525,75.978 319.988 C 77.480 320.792,79.366 319.806,79.303 318.250 C 79.280 317.663,79.207 317.730,78.966 318.562 C 78.630 319.723,77.755 320.178,76.476 319.857 C 75.486 319.609,75.261 317.227,76.194 316.869 C 77.051 316.540,78.166 316.637,78.667 317.083 C 79.065 317.438,79.069 317.413,78.693 316.917 C 78.207 316.275,76.826 316.163,75.917 316.693 M331.917 316.693 C 331.069 317.187,331.113 319.525,331.978 319.988 C 333.480 320.792,335.366 319.806,335.303 318.250 C 335.280 317.663,335.207 317.730,334.966 318.562 C 334.630 319.723,333.755 320.178,332.476 319.857 C 331.486 319.609,331.261 317.227,332.194 316.869 C 333.051 316.540,334.166 316.637,334.667 317.083 C 335.065 317.438,335.069 317.413,334.693 316.917 C 334.207 316.275,332.826 316.163,331.917 316.693 M310.150 328.333 C 310.150 334.658,310.195 337.246,310.249 334.083 C 310.304 330.921,310.304 325.746,310.249 322.583 C 310.195 319.421,310.150 322.008,310.150 328.333 M352.333 317.333 C 352.792 317.480,353.467 317.600,353.833 317.600 C 354.361 317.600,354.327 317.545,353.667 317.333 C 353.208 317.187,352.533 317.066,352.167 317.066 C 351.639 317.066,351.673 317.122,352.333 317.333 M350.327 317.841 C 349.703 318.593,350.065 318.679,350.808 317.957 C 351.161 317.614,351.292 317.333,351.099 317.333 C 350.906 317.333,350.559 317.562,350.327 317.841 M188.074 318.186 C 187.439 318.630,187.333 319.011,187.333 320.852 L 187.333 323.000 185.900 323.000 C 184.522 323.000,183.667 323.433,183.667 324.130 C 183.667 324.312,183.854 324.205,184.083 323.893 C 184.373 323.499,184.856 323.361,185.667 323.439 C 187.371 323.604,187.667 323.214,187.667 320.803 C 187.667 318.838,187.732 318.653,188.583 318.191 C 189.088 317.917,189.346 317.687,189.158 317.680 C 188.969 317.673,188.482 317.900,188.074 318.186 M189.917 318.333 C 190.156 318.601,190.333 319.687,190.333 320.880 C 190.333 323.280,190.477 323.431,192.807 323.478 C 193.738 323.497,194.725 323.651,195.000 323.820 C 195.432 324.086,195.437 324.051,195.043 323.564 C 194.707 323.150,194.064 323.000,192.626 323.000 L 190.667 323.000 190.667 320.874 C 190.667 319.240,190.532 318.646,190.083 318.307 C 189.587 317.931,189.562 317.935,189.917 318.333 M29.587 318.569 C 30.002 318.649,30.602 318.646,30.921 318.562 C 31.239 318.479,30.900 318.414,30.167 318.417 C 29.433 318.421,29.173 318.489,29.587 318.569 M26.477 319.220 C 25.914 319.501,25.257 320.054,25.016 320.449 C 24.604 321.126,24.627 321.122,25.425 320.388 C 25.890 319.960,26.847 319.404,27.552 319.153 C 28.257 318.902,28.533 318.699,28.167 318.703 C 27.800 318.706,27.040 318.939,26.477 319.220 M31.694 318.786 C 31.771 318.852,32.283 319.007,32.833 319.130 C 33.564 319.293,33.698 319.262,33.333 319.015 C 32.883 318.711,31.360 318.498,31.694 318.786 M349.731 321.083 L 349.667 323.333 351.917 323.269 L 354.167 323.205 352.099 323.087 L 350.031 322.969 349.913 320.901 L 349.795 318.833 349.731 321.083 M34.667 319.759 C 34.667 319.823,35.154 320.232,35.750 320.668 C 36.420 321.158,36.653 321.239,36.361 320.879 C 35.917 320.332,34.667 319.506,34.667 319.759 M21.541 320.513 C 21.427 320.811,21.346 321.305,21.362 321.611 C 21.378 321.916,21.523 321.724,21.684 321.183 C 21.999 320.131,21.887 319.611,21.541 320.513 M55.421 322.573 C 55.928 322.649,56.678 322.647,57.088 322.568 C 57.498 322.489,57.083 322.426,56.167 322.429 C 55.250 322.431,54.915 322.496,55.421 322.573 M111.421 322.573 C 111.928 322.649,112.678 322.647,113.088 322.568 C 113.498 322.489,113.083 322.426,112.167 322.429 C 111.250 322.431,110.915 322.496,111.421 322.573 M138.083 322.572 C 138.587 322.648,139.412 322.648,139.917 322.572 C 140.421 322.496,140.008 322.433,139.000 322.433 C 137.992 322.433,137.579 322.496,138.083 322.572 M165.421 322.573 C 165.928 322.649,166.678 322.647,167.088 322.568 C 167.498 322.489,167.083 322.426,166.167 322.429 C 165.250 322.431,164.915 322.496,165.421 322.573 M252.083 322.572 C 252.588 322.648,253.412 322.648,253.917 322.572 C 254.421 322.496,254.008 322.433,253.000 322.433 C 251.992 322.433,251.579 322.496,252.083 322.572 M281.298 322.654 C 282.121 322.787,282.961 323.162,283.215 323.509 C 283.463 323.849,283.667 323.957,283.667 323.749 C 283.667 323.080,282.220 322.332,281.009 322.375 C 279.878 322.415,279.889 322.426,281.298 322.654 M368.167 322.654 C 367.775 322.815,368.394 322.855,369.667 322.752 C 370.858 322.655,371.896 322.522,371.972 322.455 C 372.253 322.209,368.812 322.389,368.167 322.654 M52.444 323.152 C 50.311 324.080,47.323 327.908,47.358 329.667 C 47.364 329.942,47.670 329.381,48.039 328.421 C 48.867 326.268,51.162 323.901,53.081 323.221 C 53.862 322.945,54.275 322.713,54.000 322.706 C 53.725 322.699,53.025 322.899,52.444 323.152 M63.190 323.190 C 62.902 323.479,62.664 324.116,62.662 324.607 C 62.659 325.098,62.546 325.350,62.412 325.167 C 62.277 324.983,61.792 324.536,61.333 324.172 C 60.637 323.619,60.661 323.688,61.479 324.589 C 62.699 325.932,62.931 325.936,63.062 324.617 C 63.189 323.338,64.068 322.669,64.917 323.205 C 65.745 323.727,65.829 341.868,65.005 342.351 C 64.727 342.513,64.657 342.651,64.850 342.657 C 65.901 342.687,66.000 341.834,66.000 332.790 C 66.000 323.109,65.927 322.667,64.333 322.667 C 63.993 322.667,63.479 322.902,63.190 323.190 M76.067 323.067 C 75.775 323.358,75.667 325.956,75.667 332.667 C 75.667 341.836,75.765 342.687,76.817 342.657 C 77.009 342.651,76.904 342.494,76.583 342.307 C 76.050 341.996,76.000 341.172,76.000 332.667 C 76.000 324.161,76.050 323.337,76.583 323.027 C 76.904 322.840,77.009 322.682,76.817 322.677 C 76.624 322.671,76.287 322.847,76.067 323.067 M142.523 323.322 C 143.452 323.696,144.945 324.713,145.842 325.584 C 147.227 326.929,147.343 326.991,146.616 326.000 C 145.638 324.668,143.307 323.126,141.833 322.839 C 141.247 322.724,141.531 322.924,142.523 323.322 M162.444 323.152 C 160.311 324.080,157.323 327.908,157.358 329.667 C 157.364 329.942,157.670 329.381,158.039 328.421 C 158.867 326.268,161.162 323.901,163.081 323.221 C 163.862 322.945,164.275 322.713,164.000 322.706 C 163.725 322.699,163.025 322.899,162.444 323.152 M173.190 323.190 C 172.902 323.479,172.664 324.116,172.662 324.607 C 172.659 325.098,172.546 325.350,172.412 325.167 C 172.277 324.983,171.792 324.536,171.333 324.172 C 170.637 323.619,170.661 323.688,171.479 324.589 C 172.699 325.932,172.931 325.936,173.062 324.617 C 173.189 323.338,174.068 322.669,174.917 323.205 C 175.745 323.727,175.829 341.868,175.005 342.351 C 174.727 342.513,174.657 342.651,174.850 342.657 C 175.901 342.687,176.000 341.834,176.000 332.790 C 176.000 323.109,175.927 322.667,174.333 322.667 C 173.993 322.667,173.479 322.902,173.190 323.190 M256.523 323.322 C 257.452 323.696,258.945 324.713,259.842 325.584 C 261.227 326.929,261.343 326.991,260.616 326.000 C 259.638 324.668,257.307 323.126,255.833 322.839 C 255.247 322.724,255.531 322.924,256.523 323.322 M277.930 323.419 C 277.250 323.830,276.313 324.684,275.847 325.315 L 275.000 326.463 275.000 325.131 C 275.000 323.827,274.546 322.990,273.850 323.010 C 273.657 323.016,273.762 323.173,274.083 323.360 C 274.515 323.611,274.667 324.130,274.667 325.350 C 274.667 326.257,274.817 327.000,275.000 327.000 C 275.183 327.000,275.333 326.855,275.333 326.678 C 275.333 326.088,277.418 323.973,278.633 323.330 C 279.293 322.982,279.683 322.690,279.500 322.683 C 279.317 322.676,278.610 323.007,277.930 323.419 M332.067 323.067 C 331.775 323.358,331.667 325.956,331.667 332.667 C 331.667 341.836,331.765 342.687,332.817 342.657 C 333.009 342.651,332.904 342.494,332.583 342.307 C 332.050 341.996,332.000 341.172,332.000 332.667 C 332.000 324.161,332.050 323.337,332.583 323.027 C 332.904 322.840,333.009 322.682,332.817 322.677 C 332.624 322.671,332.287 322.847,332.067 323.067 M374.020 323.583 C 375.167 324.166,376.343 325.143,377.246 326.262 C 378.905 328.320,379.106 328.259,377.648 326.139 C 376.674 324.724,373.749 322.677,372.690 322.670 C 372.428 322.668,373.026 323.079,374.020 323.583 M116.733 324.003 C 118.093 324.904,119.242 326.252,120.284 328.167 C 120.483 328.533,120.651 328.675,120.657 328.482 C 120.693 327.224,116.766 323.000,115.560 323.000 C 115.372 323.000,115.900 323.451,116.733 324.003 M133.454 324.083 C 131.943 325.093,129.663 327.928,129.670 328.788 C 129.672 328.996,130.104 328.417,130.631 327.500 C 131.744 325.564,132.287 325.031,134.333 323.864 C 135.158 323.393,135.663 323.006,135.454 323.004 C 135.246 323.002,134.346 323.487,133.454 324.083 M247.454 324.083 C 245.943 325.093,243.663 327.928,243.670 328.788 C 243.672 328.996,244.104 328.417,244.631 327.500 C 245.744 325.564,246.287 325.031,248.333 323.864 C 249.158 323.393,249.663 323.006,249.454 323.004 C 249.246 323.002,248.346 323.487,247.454 324.083 M365.463 323.864 C 364.135 324.750,363.264 325.656,362.611 326.833 C 362.408 327.200,362.879 326.782,363.659 325.905 C 364.440 325.027,365.623 324.021,366.289 323.669 C 366.955 323.317,367.333 323.023,367.130 323.015 C 366.926 323.007,366.176 323.389,365.463 323.864 M24.354 323.731 C 24.343 324.042,24.671 324.649,25.083 325.081 C 25.496 325.513,25.654 325.631,25.434 325.343 C 25.215 325.055,24.887 324.448,24.705 323.993 C 24.486 323.444,24.369 323.356,24.354 323.731 M343.067 323.733 C 341.944 324.856,343.200 326.333,345.276 326.333 L 346.667 326.333 346.667 334.100 C 346.667 341.779,346.784 342.667,347.797 342.667 C 347.979 342.667,347.875 342.479,347.567 342.250 C 347.074 341.884,346.996 340.888,346.920 334.000 L 346.833 326.167 345.201 326.000 C 343.293 325.805,342.584 325.077,343.255 324.001 C 343.727 323.245,343.656 323.144,343.067 323.733 M354.694 323.918 C 355.529 325.258,354.793 325.818,352.048 325.931 L 349.667 326.029 349.662 333.765 C 349.656 341.520,349.593 342.071,348.667 342.424 C 348.263 342.578,348.276 342.619,348.738 342.640 C 349.831 342.691,350.000 341.515,350.000 333.855 L 350.000 326.333 352.115 326.333 C 354.921 326.333,356.328 324.903,354.780 323.624 C 354.273 323.205,354.266 323.230,354.694 323.918 M21.350 324.500 C 21.319 326.063,24.705 329.709,26.133 329.652 C 26.335 329.644,25.975 329.357,25.333 329.015 C 23.725 328.158,22.367 326.652,21.822 325.121 C 21.555 324.373,21.357 324.113,21.350 324.500 M78.812 332.667 C 78.812 337.525,78.859 339.512,78.916 337.083 C 78.973 334.654,78.973 330.679,78.916 328.250 C 78.859 325.821,78.812 327.808,78.812 332.667 M271.739 332.686 C 271.664 341.835,271.823 343.049,273.029 342.572 C 273.376 342.435,273.346 342.379,272.917 342.360 C 272.596 342.345,272.302 342.296,272.263 342.250 C 272.225 342.204,272.108 338.042,272.003 333.000 L 271.812 323.833 271.739 332.686 M334.812 332.667 C 334.812 337.525,334.859 339.512,334.916 337.083 C 334.973 334.654,334.973 330.679,334.916 328.250 C 334.859 325.821,334.812 327.808,334.812 332.667 M195.087 324.984 C 194.768 325.496,194.235 325.656,192.591 325.734 L 190.500 325.833 190.410 332.386 C 190.317 339.146,190.469 340.000,191.765 340.000 C 191.976 340.000,191.815 339.766,191.408 339.481 C 190.685 338.975,190.667 338.801,190.667 332.481 L 190.667 326.000 192.643 326.000 C 194.541 326.000,195.667 325.495,195.667 324.643 C 195.667 324.185,195.539 324.260,195.087 324.984 M283.209 324.843 C 283.039 325.287,282.689 325.342,281.214 325.158 C 278.358 324.801,275.000 327.441,275.000 330.043 C 275.000 330.269,275.412 329.639,275.917 328.643 C 277.221 326.069,278.607 325.213,281.033 325.482 C 282.780 325.675,284.220 325.109,283.589 324.478 C 283.494 324.382,283.323 324.547,283.209 324.843 M183.667 324.870 C 183.667 325.564,184.520 326.000,185.882 326.000 L 187.297 326.000 187.398 333.143 C 187.505 340.670,187.740 341.768,189.354 342.276 C 189.617 342.359,189.421 342.038,188.917 341.563 C 188.412 341.087,187.973 340.654,187.940 340.599 C 187.906 340.545,187.794 337.200,187.690 333.167 L 187.500 325.833 186.000 325.734 C 185.094 325.675,184.335 325.418,184.083 325.087 C 183.854 324.786,183.667 324.688,183.667 324.870 M53.500 325.957 C 50.890 327.578,49.920 329.661,50.047 333.374 C 50.096 334.818,50.237 336.000,50.361 336.000 C 50.485 336.000,50.767 336.438,50.989 336.973 C 51.476 338.148,53.247 339.797,54.167 339.930 C 54.536 339.983,54.238 339.685,53.500 339.263 C 48.727 336.532,49.422 327.648,54.552 325.820 C 55.300 325.553,55.556 325.357,55.167 325.349 C 54.800 325.342,54.050 325.615,53.500 325.957 M58.833 325.963 C 60.290 326.635,61.297 327.620,62.113 329.167 C 62.403 329.717,62.646 330.037,62.653 329.879 C 62.718 328.492,59.442 325.318,57.971 325.341 C 57.712 325.345,58.100 325.625,58.833 325.963 M108.446 326.171 C 105.484 327.947,104.399 332.813,106.134 336.539 C 106.911 338.207,108.765 340.005,109.698 339.995 C 109.956 339.992,109.567 339.654,108.833 339.245 C 104.058 336.578,104.757 327.648,109.885 325.820 C 110.628 325.555,110.886 325.358,110.500 325.351 C 110.133 325.345,109.209 325.714,108.446 326.171 M114.167 325.963 C 115.623 326.635,116.631 327.620,117.446 329.167 C 117.736 329.717,117.979 330.037,117.987 329.879 C 118.051 328.492,114.775 325.318,113.304 325.341 C 113.045 325.345,113.433 325.625,114.167 325.963 M135.421 326.186 C 134.065 326.999,132.325 329.358,132.341 330.363 C 132.345 330.622,132.626 330.233,132.965 329.500 C 133.751 327.803,135.236 326.407,136.879 325.822 C 137.622 325.557,137.885 325.358,137.500 325.351 C 137.133 325.345,136.198 325.720,135.421 326.186 M141.115 325.820 C 142.569 326.338,143.802 327.372,144.710 328.833 C 145.051 329.383,145.331 329.675,145.332 329.481 C 145.337 328.230,141.936 325.322,140.500 325.350 C 140.111 325.357,140.368 325.553,141.115 325.820 M163.500 325.957 C 160.890 327.578,159.920 329.661,160.047 333.374 C 160.096 334.818,160.237 336.000,160.361 336.000 C 160.485 336.000,160.767 336.438,160.989 336.973 C 161.476 338.148,163.247 339.797,164.167 339.930 C 164.536 339.983,164.238 339.685,163.500 339.263 C 158.727 336.532,159.422 327.648,164.552 325.820 C 165.300 325.553,165.556 325.357,165.167 325.349 C 164.800 325.342,164.050 325.615,163.500 325.957 M168.833 325.963 C 170.290 326.635,171.297 327.620,172.113 329.167 C 172.403 329.717,172.646 330.037,172.653 329.879 C 172.718 328.492,169.442 325.318,167.971 325.341 C 167.712 325.345,168.100 325.625,168.833 325.963 M249.421 326.186 C 248.065 326.999,246.325 329.358,246.341 330.363 C 246.345 330.622,246.626 330.233,246.965 329.500 C 247.751 327.803,249.236 326.407,250.879 325.822 C 251.622 325.557,251.885 325.358,251.500 325.351 C 251.133 325.345,250.198 325.720,249.421 326.186 M255.115 325.820 C 256.569 326.338,257.802 327.372,258.710 328.833 C 259.051 329.383,259.331 329.675,259.332 329.481 C 259.337 328.230,255.936 325.322,254.500 325.350 C 254.111 325.357,254.368 325.553,255.115 325.820 M372.086 325.810 C 374.141 326.543,375.189 327.593,375.920 329.650 L 376.340 330.833 376.173 329.722 C 375.860 327.648,373.317 325.302,371.430 325.348 C 371.102 325.356,371.397 325.564,372.086 325.810 M366.347 326.540 C 365.274 327.443,364.579 328.560,364.196 330.000 C 364.074 330.458,364.368 330.042,364.850 329.075 C 365.373 328.024,366.213 326.986,366.940 326.492 C 367.608 326.038,367.981 325.667,367.770 325.667 C 367.558 325.667,366.918 326.060,366.347 326.540 M26.535 326.391 C 26.666 326.601,30.696 328.051,31.569 328.201 C 34.631 328.727,37.723 330.941,38.503 333.167 C 38.760 333.900,38.977 334.232,38.985 333.903 C 39.013 332.792,37.660 330.671,36.384 329.827 C 35.186 329.034,26.239 325.912,26.535 326.391 M361.541 328.846 C 361.427 329.144,361.346 329.638,361.362 329.944 C 361.378 330.250,361.523 330.058,361.684 329.517 C 361.999 328.465,361.887 327.944,361.541 328.846 M148.203 329.500 C 148.478 330.726,148.668 330.992,148.662 330.139 C 148.659 329.787,148.504 329.275,148.318 329.000 C 148.071 328.635,148.040 328.770,148.203 329.500 M262.203 329.500 C 262.478 330.726,262.668 330.992,262.662 330.139 C 262.659 329.787,262.504 329.275,262.318 329.000 C 262.071 328.635,262.040 328.770,262.203 329.500 M120.904 331.669 C 121.090 335.533,121.253 336.049,121.271 332.833 C 121.280 331.367,121.170 329.868,121.027 329.502 C 120.884 329.136,120.829 330.111,120.904 331.669 M233.500 330.000 C 233.377 330.200,231.170 330.333,228.000 330.333 C 221.657 330.333,222.210 329.751,222.235 336.406 C 222.254 341.405,222.218 341.710,221.553 342.175 C 220.973 342.581,220.949 342.667,221.414 342.667 C 222.442 342.667,222.667 341.473,222.667 336.022 L 222.667 330.667 227.959 330.667 C 232.257 330.667,233.330 330.573,233.667 330.167 C 233.895 329.892,233.997 329.667,233.894 329.667 C 233.791 329.667,233.613 329.817,233.500 330.000 M47.112 332.667 C 47.112 334.042,47.171 334.604,47.243 333.917 C 47.315 333.229,47.315 332.104,47.243 331.417 C 47.171 330.729,47.112 331.292,47.112 332.667 M157.112 332.667 C 157.112 334.042,157.171 334.604,157.243 333.917 C 157.315 333.229,157.315 332.104,157.243 331.417 C 157.171 330.729,157.112 331.292,157.112 332.667 M31.796 331.489 C 32.875 331.933,34.207 332.717,34.755 333.231 C 35.586 334.010,35.691 334.046,35.380 333.444 C 34.994 332.699,31.303 330.661,30.363 330.675 C 30.072 330.679,30.716 331.046,31.796 331.489 M129.109 332.833 C 129.111 334.117,129.171 334.601,129.243 333.909 C 129.315 333.218,129.314 332.168,129.241 331.576 C 129.167 330.984,129.108 331.550,129.109 332.833 M243.109 332.833 C 243.111 334.117,243.171 334.601,243.243 333.909 C 243.315 333.218,243.314 332.168,243.241 331.576 C 243.167 330.984,243.108 331.550,243.109 332.833 M274.803 336.167 C 274.803 339.283,274.853 340.603,274.914 339.100 C 274.976 337.596,274.976 335.046,274.915 333.433 C 274.854 331.820,274.803 333.050,274.803 336.167 M361.109 332.833 C 361.111 334.117,361.171 334.601,361.243 333.909 C 361.315 333.218,361.314 332.168,361.241 331.576 C 361.167 330.984,361.108 331.550,361.109 332.833 M132.103 332.833 C 132.105 333.933,132.167 334.343,132.242 333.744 C 132.316 333.145,132.314 332.245,132.238 331.744 C 132.162 331.243,132.101 331.733,132.103 332.833 M148.770 332.833 C 148.772 333.933,148.834 334.343,148.908 333.744 C 148.982 333.145,148.981 332.245,148.905 331.744 C 148.829 331.243,148.768 331.733,148.770 332.833 M246.103 332.833 C 246.105 333.933,246.167 334.343,246.242 333.744 C 246.316 333.145,246.314 332.245,246.238 331.744 C 246.162 331.243,246.101 331.733,246.103 332.833 M262.770 332.833 C 262.772 333.933,262.834 334.343,262.908 333.744 C 262.982 333.145,262.981 332.245,262.905 331.744 C 262.829 331.243,262.768 331.733,262.770 332.833 M145.762 332.833 C 145.765 333.750,145.829 334.085,145.906 333.579 C 145.982 333.072,145.980 332.322,145.901 331.912 C 145.822 331.502,145.760 331.917,145.762 332.833 M259.762 332.833 C 259.765 333.750,259.829 334.085,259.906 333.579 C 259.982 333.072,259.980 332.322,259.901 331.912 C 259.822 331.502,259.760 331.917,259.762 332.833 M378.807 332.660 C 378.620 332.847,375.420 333.025,371.324 333.076 L 364.167 333.167 364.135 334.000 C 364.107 334.725,364.120 334.736,364.240 334.083 L 364.378 333.333 371.481 333.333 C 377.389 333.333,378.655 333.249,379.000 332.833 C 379.461 332.277,379.318 332.149,378.807 332.660 M62.705 334.261 C 62.637 335.609,61.694 337.395,60.414 338.602 C 59.728 339.250,59.488 339.607,59.881 339.397 C 61.530 338.514,63.259 335.471,62.897 334.086 C 62.783 333.648,62.734 333.692,62.705 334.261 M172.705 334.261 C 172.637 335.609,171.694 337.395,170.414 338.602 C 169.728 339.250,169.488 339.607,169.881 339.397 C 171.530 338.514,173.259 335.471,172.897 334.086 C 172.783 333.648,172.734 333.692,172.705 334.261 M39.077 335.667 C 39.077 336.308,39.146 336.571,39.230 336.250 C 39.314 335.929,39.314 335.404,39.230 335.083 C 39.146 334.762,39.077 335.025,39.077 335.667 M145.054 335.810 C 144.482 337.393,143.246 338.817,141.996 339.335 C 141.436 339.567,141.044 339.822,141.125 339.903 C 141.930 340.707,146.009 336.192,145.596 334.954 C 145.534 334.770,145.291 335.155,145.054 335.810 M259.054 335.810 C 258.482 337.393,257.246 338.817,255.996 339.335 C 255.436 339.567,255.044 339.822,255.125 339.903 C 255.930 340.707,260.009 336.192,259.596 334.954 C 259.534 334.770,259.291 335.155,259.054 335.810 M364.347 335.455 C 364.317 336.094,365.847 338.374,366.646 338.881 C 367.413 339.367,367.394 339.308,366.456 338.294 C 365.881 337.674,365.175 336.717,364.886 336.167 C 364.597 335.617,364.354 335.296,364.347 335.455 M120.185 337.251 C 119.411 339.126,117.374 341.431,115.981 342.008 C 115.430 342.236,115.044 342.489,115.125 342.569 C 116.024 343.468,121.407 337.366,120.936 335.981 C 120.880 335.814,120.541 336.386,120.185 337.251 M132.667 336.275 C 132.667 336.877,135.768 339.825,136.500 339.920 C 136.881 339.969,136.628 339.715,135.911 339.326 C 135.220 338.951,134.208 338.027,133.661 337.272 C 133.114 336.518,132.667 336.069,132.667 336.275 M246.667 336.275 C 246.667 336.877,249.768 339.825,250.500 339.920 C 250.881 339.969,250.628 339.715,249.911 339.326 C 249.220 338.951,248.208 338.027,247.661 337.272 C 247.114 336.518,246.667 336.069,246.667 336.275 M35.693 336.731 C 35.651 337.628,34.284 338.953,32.833 339.504 C 31.829 339.885,31.747 339.962,32.500 339.816 C 34.338 339.459,36.295 337.599,35.891 336.594 C 35.780 336.319,35.710 336.367,35.693 336.731 M147.565 337.504 C 147.260 338.144,147.080 338.667,147.163 338.667 C 147.392 338.667,148.403 336.626,148.251 336.473 C 148.179 336.401,147.870 336.865,147.565 337.504 M261.565 337.504 C 261.260 338.144,261.080 338.667,261.163 338.667 C 261.392 338.667,262.403 336.626,262.251 336.473 C 262.179 336.401,261.870 336.865,261.565 337.504 M20.863 336.952 C 20.766 337.109,21.038 337.170,21.467 337.088 C 21.994 336.987,22.786 337.326,23.913 338.136 C 26.187 339.769,26.498 339.657,24.292 338.000 C 22.611 336.737,21.253 336.321,20.863 336.952 M47.667 336.778 C 47.667 338.930,52.364 343.048,54.739 342.978 C 55.158 342.965,54.782 342.762,53.904 342.526 C 51.836 341.970,50.100 340.554,48.750 338.321 C 48.154 337.336,47.667 336.641,47.667 336.778 M157.667 336.778 C 157.667 338.930,162.364 343.048,164.739 342.978 C 165.158 342.965,164.782 342.762,163.904 342.526 C 161.836 341.970,160.100 340.554,158.750 338.321 C 158.154 337.336,157.667 336.641,157.667 336.778 M361.667 336.866 C 361.667 338.128,365.579 342.333,366.753 342.333 C 366.929 342.333,366.344 341.834,365.453 341.225 C 364.478 340.557,363.402 339.403,362.750 338.323 C 362.154 337.336,361.667 336.681,361.667 336.866 M38.552 337.746 C 38.046 339.761,35.287 341.962,32.422 342.637 C 31.387 342.881,31.322 342.939,32.054 342.967 C 34.509 343.059,39.480 338.940,38.925 337.274 C 38.845 337.034,38.677 337.247,38.552 337.746 M115.865 338.413 C 114.635 339.696,114.773 339.858,116.114 338.703 C 116.644 338.247,117.533 336.948,117.262 337.028 C 117.209 337.043,116.581 337.666,115.865 338.413 M130.000 337.478 C 130.000 337.854,131.615 339.987,132.492 340.769 C 133.530 341.695,136.403 342.997,137.333 342.963 C 137.957 342.941,137.852 342.859,136.911 342.637 C 134.348 342.033,132.189 340.462,130.550 338.009 C 130.248 337.556,130.000 337.317,130.000 337.478 M244.000 337.478 C 244.000 337.854,245.615 339.987,246.492 340.769 C 247.530 341.695,250.403 342.997,251.333 342.963 C 251.957 342.941,251.852 342.859,250.911 342.637 C 248.348 342.033,246.189 340.462,244.550 338.009 C 244.248 337.556,244.000 337.317,244.000 337.478 M20.379 338.211 C 20.297 339.486,24.587 342.677,26.333 342.642 C 26.608 342.636,26.072 342.339,25.141 341.981 C 23.124 341.205,20.768 339.279,20.568 338.243 C 20.428 337.521,20.423 337.520,20.379 338.211 M375.861 338.303 C 375.544 338.653,374.841 339.123,374.299 339.348 C 373.756 339.573,373.379 339.823,373.461 339.905 C 373.543 339.987,373.960 339.870,374.388 339.644 C 375.427 339.097,377.131 337.667,376.744 337.667 C 376.575 337.667,376.178 337.953,375.861 338.303 M377.849 337.891 C 379.150 338.916,377.080 341.281,373.932 342.369 C 372.961 342.704,372.467 342.982,372.833 342.986 C 375.772 343.019,380.347 338.384,378.000 337.751 C 377.690 337.667,377.633 337.721,377.849 337.891 M145.980 339.854 C 144.843 341.065,143.113 342.070,141.350 342.546 C 140.340 342.818,140.112 342.961,140.667 342.974 C 141.927 343.003,144.691 341.565,145.982 340.207 C 146.614 339.543,147.052 339.000,146.957 339.000 C 146.861 339.000,146.422 339.384,145.980 339.854 M259.980 339.854 C 258.843 341.065,257.113 342.070,255.350 342.546 C 254.340 342.818,254.112 342.961,254.667 342.974 C 255.927 343.003,258.691 341.565,259.982 340.207 C 260.614 339.543,261.052 339.000,260.957 339.000 C 260.861 339.000,260.422 339.384,259.980 339.854 M26.667 339.651 C 26.942 339.838,27.454 339.992,27.806 339.995 C 28.658 340.002,28.392 339.811,27.167 339.537 C 26.436 339.373,26.302 339.404,26.667 339.651 M61.833 340.337 C 61.283 340.918,60.308 341.673,59.667 342.015 C 59.025 342.357,58.672 342.644,58.883 342.652 C 59.094 342.660,60.008 342.168,60.914 341.558 L 62.561 340.449 62.864 341.474 C 63.059 342.134,63.404 342.522,63.833 342.563 C 64.354 342.614,64.373 342.591,63.917 342.456 C 63.357 342.291,63.129 341.738,62.927 340.057 C 62.835 339.293,62.818 339.298,61.833 340.337 M171.833 340.337 C 171.283 340.918,170.308 341.673,169.667 342.015 C 169.025 342.357,168.672 342.644,168.883 342.652 C 169.094 342.660,170.008 342.168,170.914 341.558 L 172.561 340.449 172.864 341.474 C 173.059 342.134,173.404 342.522,173.833 342.563 C 174.354 342.614,174.373 342.591,173.917 342.456 C 173.357 342.291,173.129 341.738,172.927 340.057 C 172.835 339.293,172.818 339.298,171.833 340.337 M56.667 340.000 L 54.833 340.225 56.500 340.274 C 57.417 340.301,58.392 340.178,58.667 340.000 C 58.942 339.822,59.017 339.699,58.833 339.726 C 58.650 339.753,57.675 339.876,56.667 340.000 M112.000 340.000 L 110.167 340.225 111.833 340.274 C 112.750 340.301,113.725 340.178,114.000 340.000 C 114.275 339.822,114.350 339.699,114.167 339.726 C 113.983 339.753,113.008 339.876,112.000 340.000 M166.667 340.000 L 164.833 340.225 166.500 340.274 C 167.417 340.301,168.392 340.178,168.667 340.000 C 168.942 339.822,169.017 339.699,168.833 339.726 C 168.650 339.753,167.675 339.876,166.667 340.000 M193.333 339.897 C 193.792 339.991,194.291 340.240,194.442 340.450 C 194.626 340.706,194.673 340.668,194.583 340.333 C 194.507 340.051,194.024 339.810,193.474 339.780 C 192.635 339.735,192.616 339.751,193.333 339.897 M322.417 340.027 C 322.737 340.214,323.000 340.727,323.000 341.167 C 323.000 341.607,322.737 342.120,322.417 342.307 C 322.096 342.494,321.991 342.651,322.183 342.657 C 322.752 342.673,323.333 341.919,323.333 341.167 C 323.333 340.414,322.752 339.660,322.183 339.677 C 321.991 339.682,322.096 339.840,322.417 340.027 M29.417 340.230 C 29.738 340.314,30.262 340.314,30.583 340.230 C 30.904 340.146,30.642 340.077,30.000 340.077 C 29.358 340.077,29.096 340.146,29.417 340.230 M138.083 340.239 C 138.587 340.315,139.412 340.315,139.917 340.239 C 140.421 340.162,140.008 340.100,139.000 340.100 C 137.992 340.100,137.579 340.162,138.083 340.239 M252.083 340.239 C 252.588 340.315,253.412 340.315,253.917 340.239 C 254.421 340.162,254.008 340.100,253.000 340.100 C 251.992 340.100,251.579 340.162,252.083 340.239 M370.256 340.242 C 370.855 340.316,371.755 340.314,372.256 340.238 C 372.757 340.162,372.267 340.101,371.167 340.103 C 370.067 340.105,369.657 340.167,370.256 340.242 M194.167 341.667 C 193.835 342.033,193.262 342.333,192.893 342.333 C 192.524 342.333,192.315 342.426,192.429 342.540 C 192.810 342.921,194.310 342.333,194.669 341.663 C 195.121 340.817,194.934 340.819,194.167 341.667 M367.833 342.651 C 368.473 342.941,370.259 343.130,369.972 342.878 C 369.896 342.810,369.233 342.664,368.500 342.552 C 367.571 342.411,367.369 342.441,367.833 342.651 " stroke="none" fill="#044c84" fill-rule="evenodd"></path><path id="path2" d="" stroke="none" fill="#104c84" fill-rule="evenodd"></path><path id="path3" d="" stroke="none" fill="#104c84" fill-rule="evenodd"></path><path id="path4" d="" stroke="none" fill="#104c84" fill-rule="evenodd"></path></g></svg>