<svg data-v-fde0c5aa="" xmlns="http://www.w3.org/2000/svg" viewBox="0 0 300 300" class="iconAboveSlogan"><!----><defs data-v-fde0c5aa=""><!----></defs><rect data-v-fde0c5aa="" fill="#EFF5EB" x="0" y="0" width="300px" height="300px" class="logo-background-square"></rect><defs data-v-fde0c5aa=""><!----></defs><g data-v-fde0c5aa="" id="cc266c05-4b10-4d03-8756-b0ff003b3e7e" fill="#1C300E" transform="matrix(3.2890574315318575,0,0,3.2890574315318575,15.197976024495876,148.28455365763566)"><path d="M9.30 13.12C9.30 13.22 9.38 13.30 9.46 13.30C9.58 13.30 9.65 13.22 9.65 13.12L9.65 3.70C9.65 3.61 9.58 3.51 9.46 3.51C9.45 3.51 9.44 3.51 9.42 3.53C9.38 3.53 9.34 3.56 9.31 3.58L5.56 8.79L1.81 3.58C1.76 3.56 1.72 3.53 1.68 3.53C1.67 3.51 1.65 3.51 1.64 3.51C1.54 3.51 1.46 3.61 1.46 3.70L1.46 13.12C1.46 13.22 1.54 13.30 1.64 13.30C1.74 13.30 1.81 13.22 1.81 13.12L1.81 4.20L5.39 9.18C5.42 9.23 5.47 9.25 5.54 9.25L5.57 9.25C5.63 9.25 5.68 9.23 5.73 9.18L9.30 4.21L9.30 13.12ZM18.68 6.44C18.56 6.44 18.49 6.54 18.49 6.62L18.49 8.33C17.96 7.22 16.87 6.44 15.61 6.44C13.82 6.44 12.38 7.99 12.38 9.87C12.38 11.75 13.82 13.30 15.61 13.30C16.87 13.30 17.96 12.53 18.49 11.41L18.49 13.12C18.49 13.23 18.56 13.30 18.68 13.30C18.77 13.30 18.84 13.23 18.84 13.12L18.84 6.62C18.84 6.54 18.77 6.44 18.68 6.44ZM15.61 12.95C14.03 12.95 12.73 11.58 12.73 9.87C12.73 8.18 14.03 6.80 15.61 6.80C17.19 6.80 18.49 8.18 18.49 9.87C18.49 11.58 17.19 12.95 15.61 12.95ZM21.80 13.12C21.80 13.23 21.88 13.30 21.97 13.30C22.08 13.30 22.13 13.23 22.13 13.12L22.13 9.91C22.13 9.91 22.19 9.74 22.30 9.44C22.48 9.00 22.82 8.30 23.31 7.74C23.77 7.22 24.43 6.80 25.30 6.80C25.41 6.80 25.48 6.72 25.48 6.62C25.48 6.52 25.41 6.44 25.30 6.44C23.98 6.44 23.10 7.34 22.57 8.13C22.39 8.41 22.25 8.69 22.13 8.95L22.13 6.62C22.13 6.52 22.08 6.44 21.97 6.44C21.88 6.44 21.80 6.52 21.80 6.62L21.80 9.83C21.78 9.87 21.78 9.88 21.80 9.91L21.80 13.12ZM27.94 13.12C27.94 13.22 28.01 13.30 28.13 13.30C28.21 13.30 28.29 13.22 28.29 13.12L28.29 6.61C28.29 6.50 28.21 6.44 28.13 6.44C28.01 6.44 27.94 6.50 27.94 6.61ZM27.94 4.75C27.94 4.83 28.01 4.91 28.13 4.91C28.21 4.91 28.29 4.83 28.29 4.75L28.29 4.41C28.29 4.30 28.21 4.23 28.13 4.23C28.01 4.23 27.94 4.30 27.94 4.41ZM37.42 6.44C37.31 6.44 37.24 6.54 37.24 6.62L37.24 8.33C36.71 7.22 35.62 6.44 34.36 6.44C32.56 6.44 31.12 7.99 31.12 9.87C31.12 11.75 32.56 13.30 34.36 13.30C35.62 13.30 36.71 12.53 37.24 11.41L37.24 13.12C37.24 13.23 37.31 13.30 37.42 13.30C37.52 13.30 37.59 13.23 37.59 13.12L37.59 6.62C37.59 6.54 37.52 6.44 37.42 6.44ZM34.36 12.95C32.77 12.95 31.47 11.58 31.47 9.87C31.47 8.18 32.77 6.80 34.36 6.80C35.94 6.80 37.24 8.18 37.24 9.87C37.24 11.58 35.94 12.95 34.36 12.95ZM52.56 8.65L52.56 11.97C51.74 12.57 50.72 12.94 49.63 12.94C46.97 12.94 44.81 10.84 44.81 8.23C44.81 5.67 46.97 3.56 49.63 3.56C50.76 3.56 51.81 3.95 52.63 4.59C52.70 4.66 52.84 4.65 52.89 4.58C52.96 4.48 52.95 4.37 52.85 4.30C51.98 3.61 50.85 3.21 49.63 3.21C46.77 3.21 44.45 5.46 44.45 8.23C44.45 11.03 46.77 13.29 49.63 13.30C50.85 13.30 51.98 12.88 52.85 12.21C52.88 12.18 52.89 12.15 52.91 12.11L52.91 12.08C52.92 12.07 52.92 12.05 52.92 12.04L52.92 8.48C52.92 8.37 52.85 8.29 52.75 8.29L52.72 8.29L49.55 8.29C49.46 8.29 49.36 8.37 49.36 8.48C49.36 8.57 49.46 8.65 49.55 8.65ZM55.99 10.53L55.99 10.53C55.99 12.07 57.22 13.30 58.73 13.30L58.73 13.30C60.26 13.30 61.50 12.07 61.50 10.53L61.50 6.62L61.50 6.62C61.50 6.52 61.42 6.44 61.32 6.44L61.32 6.44C61.24 6.44 61.14 6.52 61.14 6.62L61.14 10.53L61.14 10.53C61.14 11.87 60.06 12.95 58.73 12.95L58.73 12.95C57.41 12.95 56.34 11.87 56.34 10.53L56.34 6.62L56.34 6.62C56.34 6.52 56.25 6.44 56.17 6.44L56.17 6.44C56.06 6.44 55.99 6.52 55.99 6.62L55.99 10.53ZM64.72 13.12C64.72 13.23 64.81 13.30 64.89 13.30C65.00 13.30 65.06 13.23 65.06 13.12L65.06 9.91C65.06 9.91 65.11 9.74 65.23 9.44C65.41 9.00 65.74 8.30 66.23 7.74C66.70 7.22 67.35 6.80 68.22 6.80C68.33 6.80 68.40 6.72 68.40 6.62C68.40 6.52 68.33 6.44 68.22 6.44C66.91 6.44 66.02 7.34 65.49 8.13C65.31 8.41 65.17 8.69 65.06 8.95L65.06 6.62C65.06 6.52 65.00 6.44 64.89 6.44C64.81 6.44 64.72 6.52 64.72 6.62L64.72 9.83C64.71 9.87 64.71 9.88 64.72 9.91L64.72 13.12ZM70.87 13.12C70.87 13.22 70.94 13.30 71.05 13.30C71.13 13.30 71.22 13.22 71.22 13.12L71.22 6.61C71.22 6.50 71.13 6.44 71.05 6.44C70.94 6.44 70.87 6.50 70.87 6.61ZM70.87 4.75C70.87 4.83 70.94 4.91 71.05 4.91C71.13 4.91 71.22 4.83 71.22 4.75L71.22 4.41C71.22 4.30 71.13 4.23 71.05 4.23C70.94 4.23 70.87 4.30 70.87 4.41ZM80.35 6.44C80.23 6.44 80.16 6.54 80.16 6.62L80.16 8.33C79.63 7.22 78.54 6.44 77.28 6.44C75.49 6.44 74.05 7.99 74.05 9.87C74.05 11.75 75.49 13.30 77.28 13.30C78.54 13.30 79.63 12.53 80.16 11.41L80.16 13.12C80.16 13.23 80.23 13.30 80.35 13.30C80.44 13.30 80.51 13.23 80.51 13.12L80.51 6.62C80.51 6.54 80.44 6.44 80.35 6.44ZM77.28 12.95C75.70 12.95 74.40 11.58 74.40 9.87C74.40 8.18 75.70 6.80 77.28 6.80C78.86 6.80 80.16 8.18 80.16 9.87C80.16 11.58 78.86 12.95 77.28 12.95Z"></path></g><defs data-v-fde0c5aa=""><linearGradient data-v-fde0c5aa="" gradientTransform="rotate(25)" id="4ed30697-f411-4dbf-957f-50282de97b11" x1="0%" y1="0%" x2="100%" y2="0%"><stop data-v-fde0c5aa="" offset="0%" stop-color="#21690F" stop-opacity="1"></stop><stop data-v-fde0c5aa="" offset="100%" stop-color="#88C848" stop-opacity="1"></stop></linearGradient></defs><g data-v-fde0c5aa="" id="20445fd9-2704-4689-ae02-4c63f0cc6c06" stroke="none" fill="url(#4ed30697-f411-4dbf-957f-50282de97b11)" transform="matrix(0.980917883902,0,0,0.980917883902,105.88289038064973,69.62778377998768)"><path d="M54.6 61.5c4.9-.1 7.3-.7 8.3-2.3 1.4-2.1.1-5.8-2.2-11.2-1.4-3.4-.3-7.2.9-11.3l.3-1c.6-2.2.6-3.4 0-4.2-.7-1-2.3-1.1-4.4-1.1-.6 0-.7-.1-.7-.1-.1-.1-.1-.4-.1-.7v-.2c0-.9 0-1.9-1.5-2.1H54.3v-1.4c1.6-1.7 2.4-3 2.4-4.2 0-1.2-.8-1.9-1.4-2.5-.5-.5-.9-.9-.9-1.3 0-.3-.2-.5-.5-.5-.2 0-.5.2-.5.5 0 .4-.4.8-.9 1.3-.6.6-1.4 1.3-1.4 2.5s.7 2.5 2.4 4.1v1.4H52.6c-1.5.2-1.5 1.2-1.5 2.1v.2c0 .3 0 .6-.1.7 0 0-.1.1-.7.1-2.1 0-3.7.1-4.4 1.1-.6.8-.6 2.1 0 4.2l.3 1c1.2 4 2.3 7.9.9 11.3-2.2 5.4-3.6 9.1-2.2 11.2 1.1 1.6 3.5 2.2 8.7 2.3v5c-1.7-.6-3.1-1.3-3.1-2.3 0-.3-.2-.5-.5-.5s-.5.2-.5.4c0 0-.3 1.7-1.4 1.7-.4 0-.8-.2-1.4-.5C40 60.9 31.2 51 31.1 50.9c0 .1-.1.1-.2.1s-.3 0-.4.1c-4.2 4.2-5.2 8.1-2.6 10.7 2.6 2.6 2.5 5.8 2.5 9v1.3c0 .3.2.5.5.5s.5-.2.5-.4c.5-3.9 2-10.2 4.4-10.2 1.2 0 2.5 1.7 3.9 3.6 2.4 3.1 5.3 7 10.4 7 5.4 0 8.2-.4 9.5-1.5.7.5 1.5 1.1 2.8 1.1.3 0 .5-.2.5-.5s-.2-.5-.5-.5c-1 0-1.6-.4-2.3-.9.1-.3.2-.7.2-1.1 0-.9-1.3-1.2-3.6-1.7-.7-.2-1.4-.4-2.2-.6V61.5zM52 21.7c0-.7.6-1.2 1.1-1.8.3-.2.5-.5.7-.8.2.3.5.5.7.8.6.5 1.1 1.1 1.1 1.8s-.5 1.6-1.4 2.7v-2.1c0-.3-.2-.5-.5-.5s-.5.2-.5.5v2c-.7-1-1.2-1.9-1.2-2.6zm1.1 6.5h1.7c1 0 1 .1 1 1.1v.1h-3.7v-.1c0-.9 0-1.1 1-1.1zm3.4 40.2c1.1.3 2.5.6 2.8.9 0 .3-.1.6-.3.9-.6.9-2.6 1.5-9 1.5-4.6 0-7.4-3.7-9.6-6.7-1.6-2.1-3-4-4.7-4-2.3 0-3.7 3.2-4.5 6.2-.2-2.1-.9-4.2-2.7-6-2.8-2.8 0-6.6 2.2-8.9 1.7 1.9 9.4 10.2 15.5 14 .7.4 1.3.7 1.9.7.9 0 1.5-.6 1.9-1.2 1.3 1.3 4.1 2 6.5 2.6zm-2.6-7.9c-5 0-7.3-.5-8.2-1.8-1.1-1.7.3-5.3 2.3-10.3 1.6-3.8.3-7.9-.8-11.9l-.3-1c-.5-1.8-.6-2.9-.2-3.4.5-.6 1.9-.7 3.6-.7.7 0 1.1-.1 1.4-.4.1-.1.2-.3.3-.5h3.9c0 .2.1.4.3.5.3.3.7.4 1.4.4 1.8 0 3.1 0 3.6.7.4.5.3 1.6-.2 3.4l-.3 1c-1.2 4-2.4 8.2-.8 11.9 2.1 5 3.4 8.6 2.3 10.3-.9 1.3-3.3 1.8-8.3 1.8z"></path></g><defs data-v-fde0c5aa=""><!----></defs><g data-v-fde0c5aa="" id="c079ce92-12bf-456f-ad04-e535859b6872" fill="#1C300E" transform="matrix(0.9174311794882253,0,0,0.9174311794882253,52.02293580416472,201.38681630964217)"><path d="M0.52 3.51C0.52 3.75 0.60 3.79 0.77 3.79L1.62 3.77C1.68 3.77 1.74 5.52 1.74 7.11L1.74 11.63C1.74 11.93 1.72 12.18 1.69 12.18L0.97 12.18C0.74 12.18 0.67 12.19 0.67 12.39C0.67 12.63 0.70 12.68 0.90 12.68C1.02 12.68 1.97 12.64 2.39 12.64C2.58 12.64 3.09 12.67 3.74 12.67C5.29 12.67 7.70 12.43 7.70 10.23C7.70 8.27 5.88 7.94 5.19 7.84C5.11 7.83 5.10 7.83 5.10 7.81C5.10 7.80 5.14 7.78 5.21 7.76C5.85 7.52 7.29 6.90 7.29 5.54C7.29 3.81 5.82 3.25 4.14 3.25C3.57 3.25 2.97 3.29 2.42 3.29C2.00 3.29 0.99 3.26 0.77 3.26C0.59 3.26 0.52 3.28 0.52 3.51ZM2.97 8.19C2.97 8.12 2.97 8.08 3.08 8.08L3.56 8.08C4.17 8.08 4.82 8.09 5.19 8.22C6.06 8.51 6.38 9.16 6.38 10.14C6.38 11.17 5.92 12.18 3.91 12.18L3.07 12.18C2.98 12.18 2.97 9.02 2.97 8.19ZM2.97 7.59L2.97 6.92C2.97 5.87 2.98 3.71 3.02 3.68C3.08 3.65 3.39 3.63 3.60 3.63C5.01 3.63 6.03 4.41 6.03 5.77C6.03 6.92 5.31 7.46 4.68 7.66C4.59 7.69 4.49 7.70 4.41 7.70C4.33 7.70 4.19 7.69 3.95 7.69L3.15 7.69C2.97 7.69 2.97 7.67 2.97 7.59ZM15.81 3.51C15.81 3.72 15.88 3.79 16.07 3.79L16.88 3.77C16.98 3.77 17.02 6.61 17.02 8.55L17.02 10.42C17.02 11.30 17.01 12.18 16.97 12.18L16.37 12.18C16.14 12.18 16.07 12.19 16.07 12.39C16.07 12.63 16.11 12.68 16.31 12.68C16.44 12.68 17.26 12.64 17.68 12.64C18.10 12.64 18.87 12.68 19.19 12.68C19.36 12.68 19.39 12.61 19.39 12.40C19.39 12.24 19.36 12.18 19.19 12.18L18.38 12.18C18.31 12.18 18.23 9.18 18.23 8.37C18.23 8.30 18.23 8.26 18.34 8.26C18.73 8.26 19.33 8.27 19.63 8.27C21.87 8.32 22.01 10.00 22.01 11.68L22.01 12.49C22.01 12.61 22.06 12.64 22.16 12.64C22.16 12.64 23.60 12.68 24.08 12.68C24.25 12.68 24.30 12.64 24.30 12.53C24.30 12.24 24.25 12.18 24.09 12.18L23.45 12.18C23.35 12.18 23.32 12.14 23.30 11.31C23.21 8.99 21.84 8.34 20.93 8.05C20.79 8.01 20.82 8.01 20.93 7.95C21.52 7.69 22.83 6.94 22.83 5.63C22.83 3.63 21.14 3.21 19.74 3.21C19.42 3.21 18.13 3.29 17.71 3.29C17.29 3.29 16.31 3.26 16.09 3.26C15.90 3.26 15.81 3.28 15.81 3.51ZM18.23 7.80L18.23 4.40C18.23 4.05 18.26 3.68 18.30 3.68C18.51 3.65 18.79 3.65 19.01 3.65C20.31 3.65 21.56 4.47 21.56 5.82C21.56 6.99 21.01 7.57 20.36 7.88C20.31 7.90 20.27 7.90 20.20 7.90C19.73 7.88 19.01 7.88 18.41 7.87C18.24 7.87 18.23 7.85 18.23 7.80ZM31.78 12.39C31.78 12.63 31.81 12.68 32.00 12.68C32.33 12.68 33.29 12.64 33.71 12.64C34.13 12.64 38.64 12.68 38.96 12.68C39.09 12.68 39.24 12.66 39.24 12.49C39.24 12.07 39.28 11.23 39.28 10.53C39.28 10.39 39.13 10.39 39.00 10.39C38.89 10.39 38.77 10.39 38.77 10.51C38.75 11.06 38.75 11.41 38.72 11.76C38.70 12.01 38.70 12.04 38.60 12.04C38.44 12.04 35.81 12.08 34.31 12.08C34.24 12.08 34.20 10.11 34.16 8.26C34.16 8.06 34.20 8.09 34.34 8.09L36.62 8.09C37.32 8.09 37.35 8.20 37.35 8.30L37.35 9.00C37.35 9.14 37.53 9.14 37.65 9.14C37.74 9.14 37.87 9.13 37.87 9.02C37.87 8.83 37.84 8.33 37.84 7.83C37.84 7.32 37.87 6.83 37.87 6.71C37.87 6.59 37.73 6.58 37.63 6.58C37.52 6.58 37.35 6.59 37.35 6.72L37.35 7.45C37.35 7.62 36.90 7.63 36.62 7.63L34.29 7.63C34.17 7.63 34.16 7.63 34.16 7.45C34.15 6.75 34.13 6.06 34.13 5.46C34.13 5.12 34.13 3.71 34.22 3.71C35.45 3.71 37.95 3.75 37.95 3.81C37.95 3.99 37.91 4.83 37.91 4.89C37.91 5.04 37.98 5.10 38.16 5.10C38.36 5.10 38.43 5.08 38.43 4.94C38.43 3.85 38.49 3.36 38.49 3.09C38.49 2.91 38.40 2.90 38.21 2.90C38.01 2.90 38.01 2.95 37.98 3.11C37.97 3.25 38.04 3.25 37.13 3.25C36.51 3.25 34.37 3.29 33.60 3.29C33.11 3.29 32.17 3.25 32.07 3.25C31.95 3.25 31.89 3.30 31.89 3.49C31.89 3.72 31.96 3.74 32.13 3.74L32.79 3.74C32.84 3.74 32.91 4.79 32.91 5.71C32.91 5.80 32.97 8.27 32.97 9.83L32.97 11.17C32.97 11.84 32.94 12.18 32.91 12.18L32.06 12.18C31.84 12.18 31.78 12.21 31.78 12.39ZM47.32 7.91C47.32 11.31 49.69 12.87 52.28 12.87C54.05 12.87 55.83 11.90 55.87 11.59C56.04 10.29 56.10 9.70 56.10 9.66C56.10 9.56 56.06 9.52 55.89 9.51C55.83 9.51 55.78 9.49 55.73 9.49C55.62 9.49 55.57 9.53 55.54 9.70L55.36 11.33C55.34 11.45 54.24 12.24 52.67 12.24C50.54 12.24 48.83 10.29 48.83 7.94C48.83 5.42 50.26 3.54 52.26 3.54C54.11 3.54 55.45 5.01 55.45 5.17C55.45 5.29 55.40 6.40 55.40 6.45C55.40 6.59 55.44 6.64 55.71 6.64C55.90 6.64 55.97 6.62 55.97 6.44C55.97 5.73 56.03 3.92 56.03 3.67C56.03 3.47 55.92 3.44 55.71 3.44C55.48 3.44 55.45 3.50 55.45 3.67L55.45 4.05C55.45 4.16 55.41 4.16 55.29 4.06C55.01 3.86 54.03 3.04 52.36 3.04C49.52 3.04 47.32 4.96 47.32 7.91ZM64.48 12.39C64.48 12.63 64.48 12.68 64.68 12.68C65.00 12.68 65.94 12.64 66.36 12.64C66.78 12.64 67.61 12.68 67.93 12.68C68.10 12.68 68.10 12.61 68.10 12.40C68.10 12.24 68.10 12.18 67.93 12.18L67.00 12.18C66.92 12.18 66.88 9.93 66.88 8.20C66.88 8.01 66.88 8.01 67.00 8.01L72.24 8.01C72.31 8.01 72.32 8.01 72.32 8.18L72.32 9.91C72.32 11.05 72.31 12.18 72.25 12.18L71.48 12.18C71.26 12.18 71.22 12.19 71.22 12.39C71.22 12.63 71.23 12.68 71.43 12.68C71.75 12.68 72.59 12.64 73.01 12.64C73.43 12.64 74.02 12.68 74.34 12.68C74.51 12.68 74.52 12.61 74.52 12.40C74.52 12.24 74.51 12.18 74.34 12.18L73.60 12.18C73.56 12.18 73.54 9.27 73.54 7.04C73.54 5.40 73.54 3.70 73.58 3.70L74.20 3.70C74.42 3.70 74.47 3.68 74.47 3.49C74.47 3.25 74.45 3.19 74.26 3.19C74.12 3.19 73.49 3.23 72.90 3.23C72.23 3.23 71.62 3.19 71.40 3.19C71.20 3.19 71.18 3.22 71.18 3.44C71.18 3.67 71.25 3.70 71.41 3.70L72.21 3.70C72.27 3.70 72.32 4.79 72.32 5.71L72.32 7.42C72.32 7.59 72.32 7.59 72.16 7.59L67.05 7.59C66.88 7.59 66.88 7.59 66.88 7.38C66.88 6.96 66.86 6.23 66.86 5.53C66.86 4.66 66.88 3.70 66.93 3.70L67.70 3.70C67.93 3.70 67.97 3.68 67.97 3.49C67.97 3.25 67.96 3.19 67.76 3.19C67.44 3.19 66.85 3.23 66.25 3.23C65.66 3.23 65.17 3.19 64.95 3.19C64.76 3.19 64.67 3.21 64.67 3.44C64.67 3.68 64.78 3.70 64.95 3.70L65.56 3.70C65.62 3.70 65.63 5.59 65.63 7.18L65.63 8.61C65.63 10.08 65.62 12.18 65.55 12.18L64.74 12.18C64.51 12.18 64.48 12.19 64.48 12.39ZM87.08 2.39C87.08 2.44 87.12 2.44 87.16 2.44L87.50 2.44C87.57 2.44 87.60 2.37 87.64 2.34L88.65 1.50C88.77 1.39 88.86 1.25 88.86 1.09C88.86 0.88 88.70 0.70 88.40 0.70C88.16 0.70 88.00 0.87 87.88 1.06L87.14 2.27C87.12 2.30 87.08 2.35 87.08 2.39ZM82.63 8.15C82.63 11.17 84.97 12.80 87.22 12.80C90.01 12.80 91.98 10.89 91.98 8.06C91.98 5.33 90.23 3.11 87.43 3.11C84.83 3.11 82.63 5.10 82.63 8.15ZM84.03 7.77C84.03 5.64 85.32 3.58 87.29 3.58C89.53 3.58 90.61 5.81 90.61 7.94C90.61 10.08 89.50 12.32 87.23 12.32C85.25 12.32 84.03 10.28 84.03 7.77ZM109.47 3.51C109.47 3.75 109.56 3.77 109.73 3.77L110.17 3.77C110.25 3.77 113.04 10.99 113.08 11.07C113.57 12.18 113.67 12.99 113.88 12.99C114.14 12.99 114.20 12.67 114.48 12.26C114.63 12.04 114.72 12.01 114.87 11.66L118.10 4.06C118.22 3.81 118.20 3.77 118.57 3.77C118.79 3.77 118.86 3.75 118.86 3.56C118.86 3.32 118.82 3.26 118.62 3.26C118.48 3.26 117.95 3.30 117.53 3.30C117.11 3.30 116.28 3.26 116.06 3.26C115.86 3.26 115.81 3.29 115.81 3.51C115.81 3.75 115.93 3.77 116.10 3.77L117.10 3.77C117.17 3.77 117.18 3.81 117.18 3.95C117.18 4.63 115.50 8.72 114.77 10.63C114.63 10.99 114.55 11.17 114.51 11.17C114.46 11.17 114.37 10.98 114.23 10.60C113.65 9.10 112.52 6.01 112.00 4.49C111.92 4.27 111.83 3.93 111.83 3.79L111.83 3.77L112.81 3.77C113.04 3.77 113.11 3.75 113.11 3.56C113.11 3.32 113.06 3.26 112.87 3.26C112.55 3.26 111.47 3.30 111.05 3.30C110.63 3.30 109.91 3.26 109.73 3.26C109.55 3.26 109.47 3.28 109.47 3.51ZM126.34 12.39C126.34 12.63 126.38 12.68 126.57 12.68C126.90 12.68 127.65 12.64 128.37 12.64C129.02 12.64 129.82 12.68 130.05 12.68C130.21 12.68 130.24 12.61 130.24 12.40C130.24 12.24 130.21 12.18 130.05 12.18L129.08 12.18C128.98 12.18 128.95 9.55 128.95 7.76L128.95 5.87C128.95 5.14 128.98 3.70 129.08 3.70L129.99 3.70C130.21 3.70 130.24 3.68 130.24 3.49C130.24 3.25 130.21 3.19 130.05 3.19C129.72 3.19 129.05 3.23 128.39 3.23C127.58 3.23 126.87 3.19 126.64 3.19C126.46 3.19 126.39 3.21 126.39 3.44C126.39 3.68 126.48 3.70 126.64 3.70L127.57 3.70C127.61 3.70 127.68 4.79 127.68 5.71L127.68 7.08C127.68 8.92 127.67 12.18 127.55 12.18L126.63 12.18C126.41 12.18 126.34 12.19 126.34 12.39ZM138.14 12.39C138.14 12.63 138.15 12.68 138.35 12.68C138.53 12.68 138.91 12.64 139.52 12.64C140.15 12.64 140.71 12.68 141.04 12.68C141.20 12.68 141.20 12.61 141.20 12.40C141.20 12.24 141.20 12.18 141.04 12.18L139.83 12.18C139.79 12.18 139.78 11.54 139.78 10.79C139.78 9.46 139.79 7.48 139.79 5.99C139.79 5.25 139.79 4.84 139.80 4.28C139.80 4.02 139.87 4.14 140 4.28L146.89 12.66C146.97 12.75 147.06 12.89 147.17 12.89C147.28 12.89 147.35 12.77 147.35 12.54C147.35 12.39 147.52 6.65 147.53 4.48C147.53 4.06 147.56 3.70 147.59 3.70L148.22 3.70C148.44 3.70 148.50 3.68 148.50 3.49C148.50 3.25 148.50 3.19 148.30 3.19C148.11 3.19 147.67 3.23 147.11 3.23C146.50 3.23 145.70 3.19 145.60 3.19C145.43 3.19 145.43 3.26 145.43 3.47C145.43 3.64 145.43 3.70 145.60 3.70L146.90 3.70C146.92 3.70 146.92 4.33 146.92 4.44C146.92 5.85 146.94 8.33 146.94 9.70L146.94 10.29C146.94 10.57 146.93 10.65 146.71 10.37L141.02 3.39C140.91 3.25 140.88 3.19 140.71 3.19C140.63 3.19 140.25 3.23 139.94 3.23C139.65 3.23 138.57 3.19 138.38 3.19C138.21 3.19 138.18 3.26 138.18 3.47C138.18 3.64 138.21 3.70 138.38 3.70L139.29 3.70C139.29 4.17 139.24 8.53 139.17 10.79C139.15 11.69 139.16 12.18 139.05 12.18L138.40 12.18C138.18 12.18 138.14 12.19 138.14 12.39ZM156.27 5.01C156.27 5.17 156.45 5.17 156.58 5.17C156.73 5.17 156.77 5.15 156.79 4.97L156.90 3.89C156.91 3.81 157.46 3.75 158.21 3.75L160.20 3.75C160.26 3.75 160.29 4.35 160.29 4.97C160.29 6.43 160.23 12.18 160.10 12.18L159.24 12.18C159.01 12.18 158.97 12.19 158.97 12.39C158.97 12.63 158.98 12.68 159.18 12.68C159.50 12.68 160.48 12.64 160.90 12.64C161.32 12.64 162.26 12.68 162.58 12.68C162.75 12.68 162.78 12.61 162.78 12.40C162.78 12.24 162.75 12.18 162.58 12.18L161.59 12.18C161.56 12.18 161.56 11.76 161.56 11.31C161.56 9.56 161.64 5.96 161.64 5.92C161.66 5.18 161.66 3.75 161.76 3.75L163.37 3.75C164.08 3.75 164.91 3.78 164.91 3.85C164.91 3.99 164.86 4.90 164.86 4.97C164.86 5.12 164.93 5.17 165.12 5.17C165.31 5.17 165.38 5.17 165.38 5.03C165.38 3.93 165.44 3.40 165.44 3.14C165.44 2.94 165.35 2.94 165.16 2.94C165.00 2.94 164.95 2.98 164.93 3.16C164.93 3.23 164.29 3.28 163.45 3.28L158.45 3.28C157.79 3.28 156.98 3.28 156.98 3.21L156.98 3.07C156.98 2.94 156.86 2.94 156.76 2.94C156.53 2.94 156.51 3.00 156.49 3.19C156.44 3.89 156.27 4.97 156.27 5.01ZM171.23 12.39C171.23 12.63 171.23 12.68 171.43 12.68C171.60 12.68 171.92 12.64 172.49 12.64C173.11 12.64 173.66 12.68 173.81 12.68C173.98 12.68 173.98 12.61 173.98 12.40C173.98 12.24 173.98 12.18 173.81 12.18L172.73 12.18C172.73 12.18 172.72 12.18 172.72 12.17C172.73 11.87 173.50 9.90 173.85 9.02C173.92 8.83 173.94 8.79 174.15 8.79L176.97 8.79C177.11 8.79 177.11 8.81 177.18 9.03C177.45 9.77 178.16 11.89 178.16 12.17C178.16 12.18 178.15 12.18 178.15 12.18L177.38 12.18C177.16 12.18 177.14 12.19 177.14 12.39C177.14 12.63 177.16 12.68 177.32 12.68C177.65 12.68 178.51 12.64 178.93 12.64C179.35 12.64 180.03 12.68 180.24 12.68C180.38 12.68 180.39 12.61 180.39 12.40C180.39 12.24 180.38 12.18 180.24 12.18L179.75 12.18C179.65 12.18 178.63 9.34 178.07 7.78L176.39 3.07C176.37 3.00 176.30 2.94 176.22 2.94C176.09 2.94 175.99 3.16 175.91 3.35C175.76 3.71 175.52 3.84 175.41 4.13L173.92 7.57C173.74 8.01 172.03 12.18 171.91 12.18L171.49 12.18C171.26 12.18 171.23 12.19 171.23 12.39ZM174.13 8.33C174.13 8.30 174.16 8.23 174.20 8.13L175.57 4.77C175.62 4.66 175.64 4.61 175.67 4.61C175.69 4.61 175.70 4.63 175.74 4.77L176.90 8.18C176.93 8.25 176.95 8.29 176.95 8.32C176.95 8.36 176.92 8.37 176.82 8.37L174.31 8.37C174.13 8.37 174.13 8.34 174.13 8.33ZM187.94 7.91C187.94 11.40 190.30 12.89 192.89 12.89C194.78 12.89 196.78 11.89 196.78 11.58C196.78 11.12 196.80 10.68 196.80 10.33C196.80 9.81 196.81 9.56 196.94 9.56L197.37 9.56C197.51 9.56 197.53 9.39 197.53 9.30C197.53 9.18 197.51 9.06 197.37 9.06C197.15 9.06 196.78 9.10 196.11 9.10C195.66 9.10 194.92 9.07 194.24 9.06C194.10 9.06 194.10 9.24 194.10 9.35C194.10 9.45 194.12 9.56 194.25 9.56L195.47 9.56C195.51 9.56 195.57 9.87 195.57 10.33C195.57 10.82 195.55 11.41 195.52 11.65C195.51 11.76 194.87 12.39 193.28 12.39C191.04 12.39 189.45 10.29 189.45 7.94C189.45 5.42 191.00 3.54 193.00 3.54C194.89 3.54 196.07 4.87 196.07 5.03C196.07 5.15 196.01 6.12 196.01 6.17C196.01 6.31 196.06 6.36 196.32 6.36C196.52 6.36 196.59 6.33 196.59 6.15C196.59 5.43 196.63 3.75 196.63 3.56C196.63 3.36 196.53 3.33 196.32 3.33C196.10 3.33 196.07 3.39 196.07 3.56L196.07 3.91C196.07 3.99 196.03 4.02 195.90 3.92C195.62 3.72 194.63 3.08 193.06 3.08C190.22 3.08 187.94 4.79 187.94 7.91ZM205.56 12.39C205.56 12.63 205.59 12.68 205.79 12.68C206.11 12.68 207.07 12.64 207.49 12.64C207.91 12.64 212.42 12.68 212.74 12.68C212.87 12.68 213.02 12.66 213.02 12.49C213.02 12.07 213.07 11.23 213.07 10.53C213.07 10.39 212.91 10.39 212.79 10.39C212.67 10.39 212.55 10.39 212.55 10.51C212.53 11.06 212.53 11.41 212.51 11.76C212.48 12.01 212.48 12.04 212.38 12.04C212.23 12.04 209.59 12.08 208.10 12.08C208.03 12.08 207.98 10.11 207.94 8.26C207.94 8.06 207.98 8.09 208.12 8.09L210.41 8.09C211.11 8.09 211.13 8.20 211.13 8.30L211.13 9.00C211.13 9.14 211.32 9.14 211.43 9.14C211.53 9.14 211.65 9.13 211.65 9.02C211.65 8.83 211.62 8.33 211.62 7.83C211.62 7.32 211.65 6.83 211.65 6.71C211.65 6.59 211.51 6.58 211.41 6.58C211.30 6.58 211.13 6.59 211.13 6.72L211.13 7.45C211.13 7.62 210.69 7.63 210.41 7.63L208.07 7.63C207.96 7.63 207.94 7.63 207.94 7.45C207.93 6.75 207.91 6.06 207.91 5.46C207.91 5.12 207.91 3.71 208.00 3.71C209.23 3.71 211.74 3.75 211.74 3.81C211.74 3.99 211.69 4.83 211.69 4.89C211.69 5.04 211.76 5.10 211.95 5.10C212.14 5.10 212.21 5.08 212.21 4.94C212.21 3.85 212.27 3.36 212.27 3.09C212.27 2.91 212.18 2.90 211.99 2.90C211.79 2.90 211.79 2.95 211.76 3.11C211.75 3.25 211.82 3.25 210.91 3.25C210.29 3.25 208.15 3.29 207.38 3.29C206.89 3.29 205.95 3.25 205.86 3.25C205.73 3.25 205.67 3.30 205.67 3.49C205.67 3.72 205.74 3.74 205.91 3.74L206.57 3.74C206.63 3.74 206.70 4.79 206.70 5.71C206.70 5.80 206.75 8.27 206.75 9.83L206.75 11.17C206.75 11.84 206.72 12.18 206.70 12.18L205.84 12.18C205.62 12.18 205.56 12.21 205.56 12.39Z"></path></g></svg>